<svg id="Layer_1" data-name="Layer 1" xmlns="http://www.w3.org/2000/svg" width="2500" height="750" viewBox="0 0 2500 750"><defs><style>.cls-1{fill:#f1f2ed;}.cls-2{fill:#db1620;}.cls-3{fill:#99ada1;}.cls-4{fill:#160d06;}.cls-5{fill:#f2c098;}.cls-6{fill:#c69c6d;}.cls-7{fill:#c12755;}.cls-8{fill:#1a1a1a;}.cls-9{fill:#eaa2a7;}.cls-10{fill:#c55e48;}.cls-11{fill:#fff;}.cls-12{fill:#c1272d;}.cls-13{fill:#a56059;}.cls-14{fill:#742d1b;}.cls-15{fill:none;}.cls-16{opacity:0.85;}</style></defs><title>kvindesprite_rtlsmall</title><rect class="cls-1" x="2151.29" y="481.94" width="81.81" height="3.19" rx="1.5"/><rect class="cls-1" x="2116.23" y="471.31" width="116.88" height="3.19" rx="1.5"/><rect class="cls-1" x="2153.23" y="307.69" width="75" height="3" rx="1.5"/><rect class="cls-1" x="2116.23" y="317.69" width="110" height="3" rx="1.5"/><path class="cls-2" d="M2172.57,376.16h0c4.54,4,10.8,4.47,13.9,1l60.94-51.32c3.65-4.11-.55-24.12-5.09-28.15h0c-4.54-4-10.79-4.48-13.9-1L2170,362.47C2166.86,366,2168,372.12,2172.57,376.16Z"/><path class="cls-3" d="M2348.81,609.4l-17.92,6.21c-5.38,1.86-6.55-1.22-7.87-5L2275,496.23c-1.25-3.59,15.51-10.55,16.35-10.84l13.44-4.64c.34-.12,16.5-3.71,18.25,1.43L2352.51,601C2353.83,604.83,2354.19,607.54,2348.81,609.4Z"/><path class="cls-3" d="M2247.77,617.65,2229,614.7c-5.62-.89-5.14-4.61-4.43-9.14L2238.68,465c.67-4.28,18.76-2.69,19.64-2.55l14,2.22c.35.06,16.27,4.75,15.28,10.86l-32.51,135.59C2254.41,615.6,2253.39,618.54,2247.77,617.65Z"/><ellipse class="cls-3" cx="2244.75" cy="497.06" rx="34.51" ry="20" transform="translate(1404.25 2637.05) rotate(-81.04)"/><path class="cls-4" d="M2307.23,296.69l-71,3c-6.48.23,5-20.93,5-21,2.87-10.84-2-32-3-55,0-20.53,18.8-37.95,39.32-37.95h0A41.4,41.4,0,0,1,2318.83,227c-4.67,22.61-3.6,40.67,0,51.49C2324,294,2315.76,303.89,2307.23,296.69Z"/><path class="cls-2" d="M2323.23,371.87c4.21,0,19-15.06,8.54-28.26-4.15-5.24-5.84-11.58-6.87-15,.49-8-1.17-16.61-.67-24.54,0-5.58-2.69-9.47-8.61-9.47a587.21,587.21,0,0,1-78,0c-5.92,0-10.35,1-10.35,5.7,19.22,58.36,18.7,124.13-.41,178.38a10.66,10.66,0,0,0,10.76,11h78c5.92,0,10.77-4.56,10.77-10.14C2318.13,457.74,2322.84,371.87,2323.23,371.87Z"/><rect class="cls-5" x="2261.72" y="274.65" width="28.68" height="28.68" rx="10.5"/><path class="cls-6" d="M2307.92,240.12c0,24.06-1.84,46.07-19.69,45.57-15.56-.44-38.71-4.59-45-45.57-4-25.85,28.62-43.7,32.34-43.56C2293.43,197.25,2307.92,216.06,2307.92,240.12Z"/><path class="cls-5" d="M2306.23,240.65c-.22,22.78-3.61,46.23-23,42-10.7-2.32-27.55-6.12-38-42-8.7-29.91,16-42,31-45C2301.13,190.71,2306.52,210.45,2306.23,240.65Z"/><path class="cls-7" d="M2293.76,251.66l-.19.07v-.07"/><circle class="cls-8" cx="2293.92" cy="233.46" r="3.31"/><circle class="cls-8" cx="2267.92" cy="234.46" r="3.31"/><path class="cls-8" d="M2274.09,227c-2.28,2.59-6.56-1.72-10.12.33a1.69,1.69,0,0,1-2.18-.34h0c-.89-.83-.9-1.69-.07-1.9,5.1-2.55,10.5,3.59,13.62.42.49-.46.54-.57.14.06h0A4.12,4.12,0,0,1,2274.09,227Z"/><path class="cls-8" d="M2287.4,226.49c2.15,2.69,6.63-1.4,10.09.81a1.68,1.68,0,0,0,2.19-.24h0c.93-.78,1-1.64.16-1.89-4.81-2.7-10.91,2.81-13.63-.22-.46-.49-.51-.59-.13.05h0A4,4,0,0,0,2287.4,226.49Z"/><path class="cls-2" d="M2348.32,439.48h0c4.95-3.51,6.8-9.5,4.1-13.32l-50.84-71.82c-3.18-4.49-9-4.07-13.92-.56h0c-5,3.51-7.51,12.53-4.81,16.34l57,66.36C2342.53,440.3,2343.36,443,2348.32,439.48Z"/><path class="cls-6" d="M2286.05,249.94c.63-3.89,1-3.86.9-6.08.05-2.52-1-2.12-2.14-1.78s-2.19.65-2.25-1.72c-.19-2,1-5,.83-7.1.27,0-.07,4.77.37,6.17.33,1.68,1.64.81,2.7.53s1.92,0,1.57,3.23C2287.81,246.12,2286.34,249.89,2286.05,249.94Z"/><path class="cls-6" d="M2273,252.74c.3,1.44-.67,1.64-1.87,1.93-.94.24-1.88.48-1.95,1.94-.17,1.31.62,1.77.45,3.13a7.69,7.69,0,0,0,.58-3c0-1.31,1.1-1.3,2.34-1.4.84-.07,1.41-.62,1.37-2.58s-.64-1.27-.62-1.88C2273.12,251,2272.75,251.53,2273,252.74Z"/><path class="cls-4" d="M2279.37,192.12c15.15-2.57,29.07,20.93,27.86,24.57-.9,2.7.36-4.93-11.53-11.06-13.73-7.08-36.72-4.49-36.89-4.06C2257.77,204.22,2266.18,194.35,2279.37,192.12Z"/><path class="cls-9" d="M2295.23,256.69c-2.95-2.43-7.34-2.79-9.59-.81-2.53-2-7.46-1.62-10.41.81-2.36,1.94-.52,9.46,4,12,4.16,2.33,7.84,2.74,10,2.31a5.1,5.1,0,0,0,3-1.31C2296,266.15,2297.59,258.63,2295.23,256.69Z"/><path class="cls-10" d="M2279.11,268.9c-3.16-1.77-4.87-5.66-5.12-8.53-.16-1.79.22-3.17,1.08-3.88,3-2.46,7.86-2.87,10.57-.93,2.38-1.92,6.79-1.51,9.75.93a4.22,4.22,0,0,1,1.2,3.21,14.76,14.76,0,0,1-4.19,10.17,5.26,5.26,0,0,1-3.12,1.37,8.53,8.53,0,0,1-1.74.16A17.25,17.25,0,0,1,2279.11,268.9Zm6.7-12.83-.16.13-.16-.12c-2.46-1.91-7.27-1.53-10.1.8-.72.59-1,1.85-.91,3.45.26,2.83,2,6.53,4.87,8.14,4.13,2.31,7.78,2.7,9.85,2.28a4.82,4.82,0,0,0,2.86-1.25,14.19,14.19,0,0,0,4-9.79,3.73,3.73,0,0,0-1-2.83h0a9,9,0,0,0-5.58-2A5.48,5.48,0,0,0,2285.81,256.07Z"/><path class="cls-11" d="M2294.54,260c-.54,2.94-2,6.94-7.48,6.94-4.77,0-9-3.65-10.62-7.09l-.06-.11h18.16"/><path class="cls-10" d="M2276.22,259.92l-.07-.13-.16-.35h18.55v.5h-.09l.33.06c-.86,4.74-3.46,7.14-7.72,7.14C2282.2,267.14,2277.92,263.5,2276.22,259.92Zm.56,0c1.69,3.29,5.79,6.7,10.28,6.7,4,0,6.39-2.19,7.22-6.7Z"/><path class="cls-12" d="M2287,377.76c6.93,0,12.32-3.19,15-8.94,4-8.72.44-20.43-9.07-29.84a1,1,0,1,0-1.4,1.42c8.9,8.81,12.29,19.64,8.65,27.58-2.5,5.45-7.92,8.27-14.87,7.71a1,1,0,1,0-.16,2C2285.79,377.73,2286.42,377.76,2287,377.76Z"/><rect class="cls-1" x="2110.23" y="366.69" width="77" height="3" rx="1.5"/><rect class="cls-1" x="2108.23" y="386.69" width="77" height="3" rx="1.5"/><rect class="cls-1" x="2075.23" y="376.69" width="110" height="3" rx="1.5"/><path class="cls-2" d="M2226.07,449.34h0c5.36-2.84,8-8.55,5.77-12.68l-41.2-77.76c-2.58-4.86-8.37-5.18-13.74-2.34h0c-5.37,2.85-9.05,11.47-6.86,15.6l48,73.12C2220.22,449.41,2220.7,452.18,2226.07,449.34Z"/><path class="cls-13" d="M2415.14,722.9l-38,10.51c-6.78,1.88-13.71-1.58-15.39-7.68l-.06-.21a10.35,10.35,0,0,1,9.65-13.07l37-10.83c6.38-3.31,14.33.47,16,6.57l.06.21C2426.08,714.5,2421.92,721,2415.14,722.9Z"/><rect class="cls-14" x="2365.73" y="722.95" width="55.88" height="1.14" rx="0.5" transform="translate(-106.26 664.36) rotate(-15.46)"/><rect class="cls-5" x="2360.33" y="701.78" width="16.72" height="18.25" rx="5.57" transform="translate(-103.8 657.24) rotate(-15.46)"/><path class="cls-5" d="M2409.22,709.16l-34.07,9.42a2.29,2.29,0,0,1-2.81-1.59l-.91-3.29c-.33-1.21-.83-6.87.38-7.21l35.28-5a2.3,2.3,0,0,1,2.81,1.59l.91,3.3A2.29,2.29,0,0,1,2409.22,709.16Z"/><path class="cls-13" d="M2211.93,748.25l-34.46-19.15c-6.15-3.41-8.67-10.73-5.59-16.26l.11-.2a10.34,10.34,0,0,1,16-2.55l34,18.2c6.87,2.11,9.89,10.38,6.82,15.91l-.11.2C2225.63,749.93,2218.08,751.66,2211.93,748.25Z"/><rect class="cls-14" x="2168.26" y="733.07" width="55.88" height="1.14" rx="0.5" transform="translate(632.5 -974.1) rotate(29.05)"/><rect class="cls-5" x="2178.86" y="698" width="16.72" height="18.25" rx="5.57" transform="translate(618.5 -973.07) rotate(29.05)"/><path class="cls-5" d="M2217.35,734.3l-30.9-17.17a2.28,2.28,0,0,1-.89-3.1l1.66-3c.61-1.09,4.22-5.48,5.32-4.87l28.69,21.15a2.29,2.29,0,0,1,.88,3.1l-1.66,3A2.28,2.28,0,0,1,2217.35,734.3Z"/><rect class="cls-5" x="2349.26" y="425.33" width="20.24" height="36.53" rx="8" transform="translate(275.47 1635.55) rotate(-40.42)"/><rect class="cls-5" x="2226.26" y="436.33" width="20.24" height="36.53" rx="8" transform="translate(238.98 1558.43) rotate(-40.42)"/><path class="cls-3" d="M2187.26,708.53l-6.06-3.5c-5.72-3.3-5.27-5.63-2-11.34,12.72-38.07,25.67-71.32,44.58-86.46a12,12,0,0,1,16.39-4.39l6.06,3.5a12,12,0,0,1,4.39,16.39l-52.42,82C2194.93,710.4,2193,711.83,2187.26,708.53Z"/><path class="cls-3" d="M2369.19,708.57l-6.77,1.75c-6.39,1.65-6.54-2.24-8.19-8.63-17.59-36.07-32.82-67-29.94-91a12,12,0,0,1,8.62-14.62l6.78-1.75a12,12,0,0,1,14.62,8.62l21.92,94.75C2377.88,704.08,2375.58,706.92,2369.19,708.57Z"/><path class="cls-4" d="M2245.23,211.69c-6.11,11.9-6.89,23.33-4.35,24.63s13,8.65,11.35-4.63c-1.87-15.33,8.54-36,9-36C2264.08,195.63,2251.34,199.78,2245.23,211.69Z"/><path class="cls-4" d="M2242,256.88c2.89,17.15,9.62,29.9,12.43,29.43s.49-14.53-.14-31.91c-1.18-32.67-5.51-48.81-10.31-30.21A72.88,72.88,0,0,0,2242,256.88Z"/><rect class="cls-15" x="2000" width="500" height="750" transform="translate(4500 750) rotate(-180)"/><rect class="cls-1" x="1651.29" y="481.94" width="81.81" height="3.19" rx="1.5"/><rect class="cls-1" x="1616.23" y="471.31" width="116.88" height="3.19" rx="1.5"/><rect class="cls-1" x="1653.23" y="307.69" width="75" height="3" rx="1.5"/><rect class="cls-1" x="1616.23" y="317.69" width="110" height="3" rx="1.5"/><path class="cls-2" d="M1672.57,376.16h0c4.54,4,10.8,4.47,13.9,1l60.94-51.32c3.65-4.11-.55-24.12-5.09-28.15h0c-4.54-4-10.79-4.48-13.9-1L1670,362.47C1666.86,366,1668,372.12,1672.57,376.16Z"/><path class="cls-3" d="M1848.81,609.4l-17.92,6.21c-5.38,1.86-6.55-1.22-7.87-5L1775,496.23c-1.25-3.59,15.51-10.55,16.35-10.84l13.44-4.64c.34-.12,16.5-3.71,18.25,1.43L1852.51,601C1853.83,604.83,1854.19,607.54,1848.81,609.4Z"/><path class="cls-3" d="M1747.77,617.65,1729,614.7c-5.62-.89-5.14-4.61-4.43-9.14L1738.68,465c.67-4.28,18.76-2.69,19.64-2.55l14,2.22c.35.06,16.27,4.75,15.28,10.86l-32.51,135.59C1754.41,615.6,1753.39,618.54,1747.77,617.65Z"/><ellipse class="cls-3" cx="1744.75" cy="497.06" rx="34.51" ry="20" transform="translate(982.1 2143.14) rotate(-81.04)"/><path class="cls-4" d="M1807.23,296.69l-71,3c-6.48.23,5-20.93,5-21,2.87-10.84-2-32-3-55,0-20.53,18.8-37.95,39.32-37.95h0A41.4,41.4,0,0,1,1818.83,227c-4.67,22.61-3.6,40.67,0,51.49C1824,294,1815.76,303.89,1807.23,296.69Z"/><path class="cls-2" d="M1823.23,371.87c4.21,0,19-15.06,8.54-28.26-4.15-5.24-5.84-11.58-6.87-15,.49-8-1.17-16.61-.67-24.54,0-5.58-2.69-9.47-8.61-9.47a587.21,587.21,0,0,1-78,0c-5.92,0-10.35,1-10.35,5.7,19.22,58.36,18.7,124.13-.41,178.38a10.66,10.66,0,0,0,10.76,11h78c5.92,0,10.77-4.56,10.77-10.14C1818.13,457.74,1822.84,371.87,1823.23,371.87Z"/><rect class="cls-5" x="1761.72" y="274.65" width="28.68" height="28.68" rx="10.5"/><path class="cls-6" d="M1807.92,240.12c0,24.06-1.84,46.07-19.69,45.57-15.56-.44-38.71-4.59-45-45.57-4-25.85,28.62-43.7,32.34-43.56C1793.43,197.25,1807.92,216.06,1807.92,240.12Z"/><path class="cls-5" d="M1806.23,240.65c-.22,22.78-3.61,46.23-23,42-10.7-2.32-27.55-6.12-38-42-8.7-29.91,16-42,31-45C1801.13,190.71,1806.52,210.45,1806.23,240.65Z"/><path class="cls-7" d="M1793.76,251.66l-.19.07v-.07"/><circle class="cls-8" cx="1793.92" cy="233.46" r="3.31"/><circle class="cls-8" cx="1767.92" cy="234.46" r="3.31"/><path class="cls-8" d="M1774.09,227c-2.28,2.59-6.56-1.72-10.12.33a1.69,1.69,0,0,1-2.18-.34h0c-.89-.83-.9-1.69-.07-1.9,5.1-2.55,10.5,3.59,13.62.42.49-.46.54-.57.14.06h0A4.12,4.12,0,0,1,1774.09,227Z"/><path class="cls-8" d="M1787.4,226.49c2.15,2.69,6.63-1.4,10.09.81a1.68,1.68,0,0,0,2.19-.24h0c.93-.78,1-1.64.16-1.89-4.81-2.7-10.91,2.81-13.63-.22-.46-.49-.51-.59-.13.05h0A4,4,0,0,0,1787.4,226.49Z"/><path class="cls-2" d="M1848.32,439.48h0c5-3.51,6.8-9.5,4.1-13.32l-50.84-71.82c-3.18-4.49-9-4.07-13.92-.56h0c-5,3.51-7.51,12.53-4.81,16.34l57,66.36C1842.53,440.3,1843.36,443,1848.32,439.48Z"/><path class="cls-6" d="M1786.05,249.94c.63-3.89,1-3.86.9-6.08,0-2.52-1-2.12-2.14-1.78s-2.19.65-2.25-1.72c-.19-2,1-5,.83-7.1.27,0-.07,4.77.37,6.17.33,1.68,1.64.81,2.7.53s1.92,0,1.57,3.23C1787.81,246.12,1786.34,249.89,1786.05,249.94Z"/><path class="cls-6" d="M1773,252.74c.3,1.44-.67,1.64-1.87,1.93-.94.24-1.88.48-2,1.94-.17,1.31.62,1.77.45,3.13a7.69,7.69,0,0,0,.58-3c0-1.31,1.1-1.3,2.34-1.4.84-.07,1.41-.62,1.37-2.58s-.64-1.27-.62-1.88C1773.12,251,1772.75,251.53,1773,252.74Z"/><path class="cls-4" d="M1779.37,192.12c15.15-2.57,29.07,20.93,27.86,24.57-.9,2.7.36-4.93-11.53-11.06-13.73-7.08-36.72-4.49-36.89-4.06C1757.77,204.22,1766.18,194.35,1779.37,192.12Z"/><path class="cls-9" d="M1795.23,256.69c-3-2.43-7.34-2.79-9.59-.81-2.53-2-7.46-1.62-10.41.81-2.36,1.94-.52,9.46,4,12,4.16,2.33,7.84,2.74,10,2.31a5.1,5.1,0,0,0,3-1.31C1796,266.15,1797.59,258.63,1795.23,256.69Z"/><path class="cls-10" d="M1779.11,268.9c-3.16-1.77-4.87-5.66-5.12-8.53-.16-1.79.22-3.17,1.08-3.88,3-2.46,7.86-2.87,10.57-.93,2.38-1.92,6.79-1.51,9.75.93a4.22,4.22,0,0,1,1.2,3.21,14.76,14.76,0,0,1-4.19,10.17,5.26,5.26,0,0,1-3.12,1.37,8.53,8.53,0,0,1-1.74.16A17.25,17.25,0,0,1,1779.11,268.9Zm6.7-12.83-.16.13-.16-.12c-2.46-1.91-7.27-1.53-10.1.8-.72.59-1.05,1.85-.91,3.45.26,2.83,2,6.53,4.87,8.14,4.13,2.31,7.78,2.7,9.85,2.28a4.82,4.82,0,0,0,2.86-1.25,14.19,14.19,0,0,0,4-9.79,3.73,3.73,0,0,0-1-2.83h0a9,9,0,0,0-5.58-2A5.48,5.48,0,0,0,1785.81,256.07Z"/><path class="cls-11" d="M1794.54,260c-.54,2.94-2,6.94-7.48,6.94-4.77,0-9-3.65-10.62-7.09l-.06-.11h18.16"/><path class="cls-10" d="M1776.22,259.92l-.07-.13-.16-.35h18.55v.5h-.09l.33.06c-.86,4.74-3.46,7.14-7.72,7.14C1782.2,267.14,1777.92,263.5,1776.22,259.92Zm.56,0c1.69,3.29,5.79,6.7,10.28,6.7,4,0,6.39-2.19,7.22-6.7Z"/><path class="cls-12" d="M1787,377.76c6.93,0,12.32-3.19,15-8.94,4-8.72.44-20.43-9.07-29.84a1,1,0,1,0-1.4,1.42c8.9,8.81,12.29,19.64,8.65,27.58-2.5,5.45-7.92,8.27-14.87,7.71a1,1,0,1,0-.16,2C1785.79,377.73,1786.42,377.76,1787,377.76Z"/><rect class="cls-1" x="1610.23" y="366.69" width="77" height="3" rx="1.5"/><rect class="cls-1" x="1608.23" y="386.69" width="77" height="3" rx="1.5"/><rect class="cls-1" x="1575.23" y="376.69" width="110" height="3" rx="1.5"/><path class="cls-2" d="M1726.07,449.34h0c5.36-2.84,8-8.55,5.77-12.68l-41.2-77.76c-2.58-4.86-8.37-5.18-13.74-2.34h0c-5.37,2.85-9.05,11.47-6.86,15.6l48,73.12C1720.22,449.41,1720.7,452.18,1726.07,449.34Z"/><path class="cls-13" d="M1915.14,722.9l-38,10.51c-6.78,1.88-13.71-1.58-15.39-7.68l-.06-.21a10.35,10.35,0,0,1,9.65-13.07l37-10.83c6.38-3.31,14.33.47,16,6.57l.06.21C1926.08,714.5,1921.92,721,1915.14,722.9Z"/><rect class="cls-14" x="1865.73" y="722.95" width="55.88" height="1.14" rx="0.5" transform="translate(-124.35 531.05) rotate(-15.46)"/><rect class="cls-5" x="1860.33" y="701.78" width="16.72" height="18.25" rx="5.57" transform="translate(-121.9 523.93) rotate(-15.46)"/><path class="cls-5" d="M1909.22,709.16l-34.07,9.42a2.29,2.29,0,0,1-2.81-1.59l-.91-3.29c-.33-1.21-.83-6.87.38-7.21l35.28-5a2.3,2.3,0,0,1,2.81,1.59l.91,3.3A2.29,2.29,0,0,1,1909.22,709.16Z"/><path class="cls-13" d="M1711.93,748.25l-34.46-19.15c-6.15-3.41-8.67-10.73-5.59-16.26l.11-.2a10.34,10.34,0,0,1,16-2.55l34,18.2c6.87,2.11,9.89,10.38,6.82,15.91l-.11.2C1725.63,749.93,1718.08,751.66,1711.93,748.25Z"/><rect class="cls-14" x="1668.26" y="733.07" width="55.88" height="1.14" rx="0.5" transform="translate(569.6 -731.32) rotate(29.05)"/><rect class="cls-5" x="1678.86" y="698" width="16.72" height="18.25" rx="5.57" transform="translate(555.6 -730.29) rotate(29.05)"/><path class="cls-5" d="M1717.35,734.3l-30.9-17.17a2.28,2.28,0,0,1-.89-3.1l1.66-3c.61-1.09,4.22-5.48,5.32-4.87l28.69,21.15a2.29,2.29,0,0,1,.88,3.1l-1.66,3A2.28,2.28,0,0,1,1717.35,734.3Z"/><rect class="cls-5" x="1849.26" y="425.33" width="20.24" height="36.53" rx="8" transform="translate(156.14 1311.38) rotate(-40.42)"/><rect class="cls-5" x="1726.26" y="436.33" width="20.24" height="36.53" rx="8" transform="translate(119.66 1234.25) rotate(-40.42)"/><path class="cls-3" d="M1687.26,708.53l-6.06-3.5c-5.72-3.3-5.27-5.63-2-11.34,12.72-38.07,25.67-71.32,44.58-86.46a12,12,0,0,1,16.39-4.39l6.06,3.5a12,12,0,0,1,4.39,16.39l-52.42,82C1694.93,710.4,1693,711.83,1687.26,708.53Z"/><path class="cls-3" d="M1869.19,708.57l-6.77,1.75c-6.39,1.65-6.54-2.24-8.19-8.63-17.59-36.07-32.82-67-29.94-91a12,12,0,0,1,8.62-14.62l6.78-1.75a12,12,0,0,1,14.62,8.62l21.92,94.75C1877.88,704.08,1875.58,706.92,1869.19,708.57Z"/><path class="cls-4" d="M1745.23,211.69c-6.11,11.9-6.89,23.33-4.35,24.63s13,8.65,11.35-4.63c-1.87-15.33,8.54-36,9-36C1764.08,195.63,1751.34,199.78,1745.23,211.69Z"/><path class="cls-4" d="M1742,256.88c2.89,17.15,9.62,29.9,12.43,29.43s.49-14.53-.14-31.91c-1.18-32.67-5.51-48.81-10.31-30.21A72.88,72.88,0,0,0,1742,256.88Z"/><rect class="cls-15" x="1500" width="500" height="750" transform="translate(3500 750) rotate(-180)"/><rect class="cls-1" x="1151.29" y="481.94" width="81.81" height="3.19" rx="1.5"/><rect class="cls-1" x="1116.23" y="471.31" width="116.88" height="3.19" rx="1.5"/><rect class="cls-1" x="1153.23" y="307.69" width="75" height="3" rx="1.5"/><rect class="cls-1" x="1116.23" y="317.69" width="110" height="3" rx="1.5"/><path class="cls-2" d="M1172.57,376.16h0c4.54,4,10.8,4.47,13.9,1l60.94-51.32c3.65-4.11-.55-24.12-5.09-28.15h0c-4.54-4-10.79-4.48-13.9-1L1170,362.47C1166.86,366,1168,372.12,1172.57,376.16Z"/><path class="cls-3" d="M1348.81,609.4l-17.92,6.21c-5.38,1.86-6.55-1.22-7.87-5L1275,496.23c-1.25-3.59,15.51-10.55,16.35-10.84l13.44-4.64c.34-.12,16.5-3.71,18.25,1.43L1352.51,601C1353.83,604.83,1354.19,607.54,1348.81,609.4Z"/><path class="cls-3" d="M1247.77,617.65,1229,614.7c-5.62-.89-5.14-4.61-4.43-9.14L1238.68,465c.67-4.28,18.76-2.69,19.64-2.55l14,2.22c.35.06,16.27,4.75,15.28,10.86l-32.51,135.59C1254.41,615.6,1253.39,618.54,1247.77,617.65Z"/><ellipse class="cls-3" cx="1244.75" cy="497.06" rx="34.51" ry="20" transform="translate(559.95 1649.24) rotate(-81.04)"/><path class="cls-4" d="M1307.23,296.69l-71,3c-6.48.23,5-20.93,5-21,2.87-10.84-2-32-3-55,0-20.53,18.8-37.95,39.32-37.95h0A41.4,41.4,0,0,1,1318.83,227c-4.67,22.61-3.6,40.67,0,51.49C1324,294,1315.76,303.89,1307.23,296.69Z"/><path class="cls-2" d="M1323.23,371.87c4.21,0,19-15.06,8.54-28.26-4.15-5.24-5.84-11.58-6.87-15,.49-8-1.17-16.61-.67-24.54,0-5.58-2.69-9.47-8.61-9.47a587.21,587.21,0,0,1-78,0c-5.92,0-10.35,1-10.35,5.7,19.22,58.36,18.7,124.13-.41,178.38a10.66,10.66,0,0,0,10.76,11h78c5.92,0,10.77-4.56,10.77-10.14C1318.13,457.74,1322.84,371.87,1323.23,371.87Z"/><rect class="cls-5" x="1261.72" y="274.65" width="28.68" height="28.68" rx="10.5"/><path class="cls-6" d="M1307.92,240.12c0,24.06-1.84,46.07-19.69,45.57-15.56-.44-38.71-4.59-45-45.57-4-25.85,28.62-43.7,32.34-43.56C1293.43,197.25,1307.92,216.06,1307.92,240.12Z"/><path class="cls-5" d="M1306.23,240.65c-.22,22.78-3.61,46.23-23,42-10.7-2.32-27.55-6.12-38-42-8.7-29.91,16-42,31-45C1301.13,190.71,1306.52,210.45,1306.23,240.65Z"/><path class="cls-7" d="M1293.76,251.66l-.19.07v-.07"/><circle class="cls-8" cx="1293.92" cy="233.46" r="3.31"/><circle class="cls-8" cx="1267.92" cy="234.46" r="3.31"/><path class="cls-8" d="M1274.09,227c-2.28,2.59-6.56-1.72-10.12.33a1.69,1.69,0,0,1-2.18-.34h0c-.89-.83-.9-1.69-.07-1.9,5.1-2.55,10.5,3.59,13.62.42.49-.46.54-.57.14.06h0A4.12,4.12,0,0,1,1274.09,227Z"/><path class="cls-8" d="M1287.4,226.49c2.15,2.69,6.63-1.4,10.09.81a1.68,1.68,0,0,0,2.19-.24h0c.93-.78,1-1.64.16-1.89-4.81-2.7-10.91,2.81-13.63-.22-.46-.49-.51-.59-.13.05h0A4,4,0,0,0,1287.4,226.49Z"/><path class="cls-2" d="M1348.32,439.48h0c5-3.51,6.8-9.5,4.1-13.32l-50.84-71.82c-3.18-4.49-9-4.07-13.92-.56h0c-5,3.51-7.51,12.53-4.81,16.34l57,66.36C1342.53,440.3,1343.36,443,1348.32,439.48Z"/><path class="cls-6" d="M1286.05,249.94c.63-3.89,1-3.86.9-6.08,0-2.52-1-2.12-2.14-1.78s-2.19.65-2.25-1.72c-.19-2,1-5,.83-7.1.27,0-.07,4.77.37,6.17.33,1.68,1.64.81,2.7.53s1.92,0,1.57,3.23C1287.81,246.12,1286.34,249.89,1286.05,249.94Z"/><path class="cls-6" d="M1273,252.74c.3,1.44-.67,1.64-1.87,1.93-.94.24-1.88.48-2,1.94-.17,1.31.62,1.77.45,3.13a7.69,7.69,0,0,0,.58-3c0-1.31,1.1-1.3,2.34-1.4.84-.07,1.41-.62,1.37-2.58s-.64-1.27-.62-1.88C1273.12,251,1272.75,251.53,1273,252.74Z"/><path class="cls-4" d="M1279.37,192.12c15.15-2.57,29.07,20.93,27.86,24.57-.9,2.7.36-4.93-11.53-11.06-13.73-7.08-36.72-4.49-36.89-4.06C1257.77,204.22,1266.18,194.35,1279.37,192.12Z"/><path class="cls-9" d="M1295.23,256.69c-3-2.43-7.34-2.79-9.59-.81-2.53-2-7.46-1.62-10.41.81-2.36,1.94-.52,9.46,4,12,4.16,2.33,7.84,2.74,10,2.31a5.1,5.1,0,0,0,3-1.31C1296,266.15,1297.59,258.63,1295.23,256.69Z"/><path class="cls-10" d="M1279.11,268.9c-3.16-1.77-4.87-5.66-5.12-8.53-.16-1.79.22-3.17,1.08-3.88,3-2.46,7.86-2.87,10.57-.93,2.38-1.92,6.79-1.51,9.75.93a4.22,4.22,0,0,1,1.2,3.21,14.76,14.76,0,0,1-4.19,10.17,5.26,5.26,0,0,1-3.12,1.37,8.53,8.53,0,0,1-1.74.16A17.25,17.25,0,0,1,1279.11,268.9Zm6.7-12.83-.16.13-.16-.12c-2.46-1.91-7.27-1.53-10.1.8-.72.59-1.05,1.85-.91,3.45.26,2.83,2,6.53,4.87,8.14,4.13,2.31,7.78,2.7,9.85,2.28a4.82,4.82,0,0,0,2.86-1.25,14.19,14.19,0,0,0,4-9.79,3.73,3.73,0,0,0-1-2.83h0a9,9,0,0,0-5.58-2A5.48,5.48,0,0,0,1285.81,256.07Z"/><path class="cls-11" d="M1294.54,260c-.54,2.94-2,6.94-7.48,6.94-4.77,0-9-3.65-10.62-7.09l-.06-.11h18.16"/><path class="cls-10" d="M1276.22,259.92l-.07-.13-.16-.35h18.55v.5h-.09l.33.06c-.86,4.74-3.46,7.14-7.72,7.14C1282.2,267.14,1277.92,263.5,1276.22,259.92Zm.56,0c1.69,3.29,5.79,6.7,10.28,6.7,4,0,6.39-2.19,7.22-6.7Z"/><path class="cls-12" d="M1287,377.76c6.93,0,12.32-3.19,15-8.94,4-8.72.44-20.43-9.07-29.84a1,1,0,1,0-1.4,1.42c8.9,8.81,12.29,19.64,8.65,27.58-2.5,5.45-7.92,8.27-14.87,7.71a1,1,0,1,0-.16,2C1285.79,377.73,1286.42,377.76,1287,377.76Z"/><rect class="cls-1" x="1110.23" y="366.69" width="77" height="3" rx="1.5"/><rect class="cls-1" x="1108.23" y="386.69" width="77" height="3" rx="1.5"/><rect class="cls-1" x="1075.23" y="376.69" width="110" height="3" rx="1.5"/><path class="cls-2" d="M1226.07,449.34h0c5.36-2.84,8-8.55,5.77-12.68l-41.2-77.76c-2.58-4.86-8.37-5.18-13.74-2.34h0c-5.37,2.85-9.05,11.47-6.86,15.6l48,73.12C1220.22,449.41,1220.7,452.18,1226.07,449.34Z"/><path class="cls-13" d="M1415.14,722.9l-38,10.51c-6.78,1.88-13.71-1.58-15.39-7.68l-.06-.21a10.35,10.35,0,0,1,9.65-13.07l37-10.83c6.38-3.31,14.33.47,16,6.57l.06.21C1426.08,714.5,1421.92,721,1415.14,722.9Z"/><rect class="cls-14" x="1365.73" y="722.95" width="55.88" height="1.14" rx="0.5" transform="translate(-142.45 397.75) rotate(-15.46)"/><rect class="cls-5" x="1360.33" y="701.78" width="16.72" height="18.25" rx="5.57" transform="translate(-139.99 390.63) rotate(-15.46)"/><path class="cls-5" d="M1409.22,709.16l-34.07,9.42a2.29,2.29,0,0,1-2.81-1.59l-.91-3.29c-.33-1.21-.83-6.87.38-7.21l35.28-5a2.3,2.3,0,0,1,2.81,1.59l.91,3.3A2.29,2.29,0,0,1,1409.22,709.16Z"/><path class="cls-13" d="M1211.93,748.25l-34.46-19.15c-6.15-3.41-8.67-10.73-5.59-16.26l.11-.2a10.34,10.34,0,0,1,16-2.55l34,18.2c6.87,2.11,9.89,10.38,6.82,15.91l-.11.2C1225.63,749.93,1218.08,751.66,1211.93,748.25Z"/><rect class="cls-14" x="1168.26" y="733.07" width="55.88" height="1.14" rx="0.5" transform="translate(506.7 -488.54) rotate(29.05)"/><rect class="cls-5" x="1178.86" y="698" width="16.72" height="18.25" rx="5.57" transform="translate(492.7 -487.51) rotate(29.05)"/><path class="cls-5" d="M1217.35,734.3l-30.9-17.17a2.28,2.28,0,0,1-.89-3.1l1.66-3c.61-1.09,4.22-5.48,5.32-4.87l28.69,21.15a2.29,2.29,0,0,1,.88,3.1l-1.66,3A2.28,2.28,0,0,1,1217.35,734.3Z"/><rect class="cls-5" x="1349.26" y="425.33" width="20.24" height="36.53" rx="8" transform="translate(36.82 987.2) rotate(-40.42)"/><rect class="cls-5" x="1226.26" y="436.33" width="20.24" height="36.53" rx="8" transform="translate(0.33 910.08) rotate(-40.42)"/><path class="cls-3" d="M1187.26,708.53l-6.06-3.5c-5.72-3.3-5.27-5.63-2-11.34,12.72-38.07,25.67-71.32,44.58-86.46a12,12,0,0,1,16.39-4.39l6.06,3.5a12,12,0,0,1,4.39,16.39l-52.42,82C1194.93,710.4,1193,711.83,1187.26,708.53Z"/><path class="cls-3" d="M1369.19,708.57l-6.77,1.75c-6.39,1.65-6.54-2.24-8.19-8.63-17.59-36.07-32.82-67-29.94-91a12,12,0,0,1,8.62-14.62l6.78-1.75a12,12,0,0,1,14.62,8.62l21.92,94.75C1377.88,704.08,1375.58,706.92,1369.19,708.57Z"/><path class="cls-4" d="M1245.23,211.69c-6.11,11.9-6.89,23.33-4.35,24.63s13,8.65,11.35-4.63c-1.87-15.33,8.54-36,9-36C1264.08,195.63,1251.34,199.78,1245.23,211.69Z"/><path class="cls-4" d="M1242,256.88c2.89,17.15,9.62,29.9,12.43,29.43s.49-14.53-.14-31.91c-1.18-32.67-5.51-48.81-10.31-30.21A72.88,72.88,0,0,0,1242,256.88Z"/><rect class="cls-15" x="1000" width="500" height="750" transform="translate(2500 750) rotate(-180)"/><rect class="cls-1" x="651.29" y="481.94" width="81.81" height="3.19" rx="1.5"/><rect class="cls-1" x="616.23" y="471.31" width="116.88" height="3.19" rx="1.5"/><rect class="cls-1" x="653.23" y="307.69" width="75" height="3" rx="1.5"/><rect class="cls-1" x="616.23" y="317.69" width="110" height="3" rx="1.5"/><path class="cls-2" d="M672.57,376.16h0c4.54,4,10.8,4.47,13.9,1l60.94-51.32c3.65-4.11-.55-24.12-5.09-28.15h0c-4.54-4-10.79-4.48-13.9-1L670,362.47C666.86,366,668,372.12,672.57,376.16Z"/><path class="cls-3" d="M848.81,609.4l-17.92,6.21c-5.38,1.86-6.55-1.22-7.87-5L775,496.23c-1.25-3.59,15.51-10.55,16.35-10.84l13.44-4.64c.34-.12,16.5-3.71,18.25,1.43L852.51,601C853.83,604.83,854.19,607.54,848.81,609.4Z"/><path class="cls-3" d="M747.77,617.65,729,614.7c-5.62-.89-5.14-4.61-4.43-9.14L738.68,465c.67-4.28,18.76-2.69,19.64-2.55l14,2.22c.35.06,16.27,4.75,15.28,10.86L755.13,611.07C754.41,615.6,753.39,618.54,747.77,617.65Z"/><ellipse class="cls-3" cx="744.75" cy="497.06" rx="34.51" ry="20" transform="translate(137.8 1155.34) rotate(-81.04)"/><path class="cls-4" d="M807.23,296.69l-71,3c-6.48.23,5-20.93,5-21,2.87-10.84-2-32-3-55,0-20.53,18.8-37.95,39.32-37.95h0A41.4,41.4,0,0,1,818.83,227c-4.67,22.61-3.6,40.67,0,51.49C824,294,815.76,303.89,807.23,296.69Z"/><path class="cls-2" d="M823.23,371.87c4.21,0,19-15.06,8.54-28.26-4.15-5.24-5.84-11.58-6.87-15,.49-8-1.17-16.61-.67-24.54,0-5.58-2.69-9.47-8.61-9.47a587.21,587.21,0,0,1-78,0c-5.92,0-10.35,1-10.35,5.7,19.22,58.36,18.7,124.13-.41,178.38a10.66,10.66,0,0,0,10.76,11h78c5.92,0,10.77-4.56,10.77-10.14C818.13,457.74,822.84,371.87,823.23,371.87Z"/><rect class="cls-5" x="761.72" y="274.65" width="28.68" height="28.68" rx="10.5"/><path class="cls-6" d="M807.92,240.12c0,24.06-1.84,46.07-19.69,45.57-15.56-.44-38.71-4.59-45-45.57-4-25.85,28.62-43.7,32.34-43.56C793.43,197.25,807.92,216.06,807.92,240.12Z"/><path class="cls-5" d="M806.23,240.65c-.22,22.78-3.61,46.23-23,42-10.7-2.32-27.55-6.12-38-42-8.7-29.91,16-42,31-45C801.13,190.71,806.52,210.45,806.23,240.65Z"/><path class="cls-7" d="M793.76,251.66l-.19.07v-.07"/><circle class="cls-8" cx="793.92" cy="233.46" r="3.31"/><circle class="cls-8" cx="767.92" cy="234.46" r="3.31"/><path class="cls-8" d="M774.09,227c-2.28,2.59-6.56-1.72-10.12.33a1.69,1.69,0,0,1-2.18-.34h0c-.89-.83-.9-1.69-.07-1.9,5.1-2.55,10.5,3.59,13.62.42.49-.46.54-.57.14.06h0A4.12,4.12,0,0,1,774.09,227Z"/><path class="cls-8" d="M787.4,226.49c2.15,2.69,6.63-1.4,10.09.81a1.68,1.68,0,0,0,2.19-.24h0c.93-.78,1-1.64.16-1.89-4.81-2.7-10.91,2.81-13.63-.22-.46-.49-.51-.59-.13.05h0A4,4,0,0,0,787.4,226.49Z"/><path class="cls-2" d="M848.32,439.48h0c4.95-3.51,6.8-9.5,4.1-13.32l-50.84-71.82c-3.18-4.49-9-4.07-13.92-.56h0c-5,3.51-7.51,12.53-4.81,16.34l57,66.36C842.53,440.3,843.36,443,848.32,439.48Z"/><path class="cls-6" d="M786.05,249.94c.63-3.89,1-3.86.9-6.08,0-2.52-1.05-2.12-2.14-1.78s-2.19.65-2.25-1.72c-.19-2,1-5,.83-7.1.27,0-.07,4.77.37,6.17.33,1.68,1.64.81,2.7.53s1.92,0,1.57,3.23C787.81,246.12,786.34,249.89,786.05,249.94Z"/><path class="cls-6" d="M773,252.74c.3,1.44-.67,1.64-1.87,1.93-.94.24-1.88.48-1.95,1.94-.17,1.31.62,1.77.45,3.13a7.69,7.69,0,0,0,.58-3c0-1.31,1.1-1.3,2.34-1.4.84-.07,1.41-.62,1.37-2.58s-.64-1.27-.62-1.88C773.12,251,772.75,251.53,773,252.74Z"/><path class="cls-4" d="M779.37,192.12c15.15-2.57,29.07,20.93,27.86,24.57-.9,2.7.36-4.93-11.53-11.06-13.73-7.08-36.72-4.49-36.89-4.06C757.77,204.22,766.18,194.35,779.37,192.12Z"/><path class="cls-9" d="M795.23,256.69c-3-2.43-7.34-2.79-9.59-.81-2.53-2-7.46-1.62-10.41.81-2.36,1.94-.52,9.46,4,12,4.16,2.33,7.84,2.74,10,2.31a5.1,5.1,0,0,0,3-1.31C796,266.15,797.59,258.63,795.23,256.69Z"/><path class="cls-10" d="M779.11,268.9c-3.16-1.77-4.87-5.66-5.12-8.53-.16-1.79.22-3.17,1.08-3.88,3-2.46,7.86-2.87,10.57-.93,2.38-1.92,6.79-1.51,9.75.93a4.22,4.22,0,0,1,1.2,3.21,14.76,14.76,0,0,1-4.19,10.17,5.26,5.26,0,0,1-3.12,1.37,8.53,8.53,0,0,1-1.74.16A17.25,17.25,0,0,1,779.11,268.9Zm6.7-12.83-.16.13-.16-.12c-2.46-1.91-7.27-1.53-10.1.8-.72.59-1,1.85-.91,3.45.26,2.83,2,6.53,4.87,8.14,4.13,2.31,7.78,2.7,9.85,2.28a4.82,4.82,0,0,0,2.86-1.25,14.19,14.19,0,0,0,4-9.79,3.73,3.73,0,0,0-1-2.83h0a9,9,0,0,0-5.58-2A5.48,5.48,0,0,0,785.81,256.07Z"/><path class="cls-11" d="M794.54,260c-.54,2.94-2,6.94-7.48,6.94-4.77,0-9-3.65-10.62-7.09l-.06-.11h18.16"/><path class="cls-10" d="M776.22,259.92l-.07-.13-.16-.35h18.55v.5h-.09l.33.06c-.86,4.74-3.46,7.14-7.72,7.14C782.2,267.14,777.92,263.5,776.22,259.92Zm.56,0c1.69,3.29,5.79,6.7,10.28,6.7,4,0,6.39-2.19,7.22-6.7Z"/><path class="cls-12" d="M787,377.76c6.93,0,12.32-3.19,15-8.94,4-8.72.44-20.43-9.07-29.84a1,1,0,1,0-1.4,1.42c8.9,8.81,12.29,19.64,8.65,27.58-2.5,5.45-7.92,8.27-14.87,7.71a1,1,0,1,0-.16,2C785.79,377.73,786.42,377.76,787,377.76Z"/><rect class="cls-1" x="610.23" y="366.69" width="77" height="3" rx="1.5"/><rect class="cls-1" x="608.23" y="386.69" width="77" height="3" rx="1.5"/><rect class="cls-1" x="575.23" y="376.69" width="110" height="3" rx="1.5"/><path class="cls-2" d="M726.07,449.34h0c5.36-2.84,8-8.55,5.77-12.68l-41.2-77.76c-2.58-4.86-8.37-5.18-13.74-2.34h0c-5.37,2.85-9,11.47-6.86,15.6l48,73.12C720.22,449.41,720.7,452.18,726.07,449.34Z"/><path class="cls-13" d="M915.14,722.9l-38,10.51c-6.78,1.88-13.71-1.58-15.39-7.68l-.06-.21a10.35,10.35,0,0,1,9.65-13.07l37-10.83c6.38-3.31,14.33.47,16,6.57l.06.21C926.08,714.5,921.92,721,915.14,722.9Z"/><rect class="cls-14" x="865.73" y="722.95" width="55.88" height="1.14" rx="0.5" transform="translate(-160.55 264.45) rotate(-15.46)"/><rect class="cls-5" x="860.33" y="701.78" width="16.72" height="18.25" rx="5.57" transform="translate(-158.09 257.33) rotate(-15.46)"/><path class="cls-5" d="M909.22,709.16l-34.07,9.42a2.29,2.29,0,0,1-2.81-1.59l-.91-3.29c-.33-1.21-.83-6.87.38-7.21l35.28-5a2.3,2.3,0,0,1,2.81,1.59l.91,3.3A2.29,2.29,0,0,1,909.22,709.16Z"/><path class="cls-13" d="M711.93,748.25,677.47,729.1c-6.15-3.41-8.67-10.73-5.59-16.26l.11-.2a10.34,10.34,0,0,1,16-2.55l34,18.2c6.87,2.11,9.89,10.38,6.82,15.91l-.11.2C725.63,749.93,718.08,751.66,711.93,748.25Z"/><rect class="cls-14" x="668.26" y="733.07" width="55.88" height="1.14" rx="0.5" transform="translate(443.81 -245.76) rotate(29.05)"/><rect class="cls-5" x="678.86" y="698" width="16.72" height="18.25" rx="5.57" transform="translate(429.8 -244.73) rotate(29.05)"/><path class="cls-5" d="M717.35,734.3l-30.9-17.17a2.28,2.28,0,0,1-.89-3.1l1.66-3c.61-1.09,4.22-5.48,5.32-4.87l28.69,21.15a2.29,2.29,0,0,1,.88,3.1l-1.66,3A2.28,2.28,0,0,1,717.35,734.3Z"/><rect class="cls-5" x="849.26" y="425.33" width="20.24" height="36.53" rx="8" transform="translate(-82.51 663.03) rotate(-40.42)"/><rect class="cls-5" x="726.26" y="436.33" width="20.24" height="36.53" rx="8" transform="translate(-118.99 585.91) rotate(-40.42)"/><path class="cls-3" d="M687.26,708.53,681.2,705c-5.72-3.3-5.27-5.63-2-11.34,12.72-38.07,25.67-71.32,44.58-86.46a12,12,0,0,1,16.39-4.39l6.06,3.5a12,12,0,0,1,4.39,16.39l-52.42,82C694.93,710.4,693,711.83,687.26,708.53Z"/><path class="cls-3" d="M869.19,708.57l-6.77,1.75c-6.39,1.65-6.54-2.24-8.19-8.63-17.59-36.07-32.82-67-29.94-91a12,12,0,0,1,8.62-14.62l6.78-1.75a12,12,0,0,1,14.62,8.62l21.92,94.75C877.88,704.08,875.58,706.92,869.19,708.57Z"/><path class="cls-4" d="M745.23,211.69c-6.11,11.9-6.89,23.33-4.35,24.63s13,8.65,11.35-4.63c-1.87-15.33,8.54-36,9-36C764.08,195.63,751.34,199.78,745.23,211.69Z"/><path class="cls-4" d="M742,256.88c2.89,17.15,9.62,29.9,12.43,29.43s.49-14.53-.14-31.91c-1.18-32.67-5.51-48.81-10.31-30.21A72.88,72.88,0,0,0,742,256.88Z"/><rect class="cls-15" x="500" width="500" height="750" transform="translate(1500 750) rotate(-180)"/><rect class="cls-1" x="151.29" y="481.94" width="81.81" height="3.19" rx="1.5"/><rect class="cls-1" x="116.23" y="471.31" width="116.88" height="3.19" rx="1.5"/><rect class="cls-1" x="153.23" y="307.69" width="75" height="3" rx="1.5"/><rect class="cls-1" x="116.23" y="317.69" width="110" height="3" rx="1.5"/><path class="cls-2" d="M172.57,376.16h0c4.54,4,10.8,4.47,13.9,1l60.94-51.32c3.65-4.11-.55-24.12-5.09-28.15h0c-4.54-4-10.79-4.48-13.9-1L170,362.47C166.86,366,168,372.12,172.57,376.16Z"/><path class="cls-3" d="M348.81,609.4l-17.92,6.21c-5.38,1.86-6.55-1.22-7.87-5L275,496.23c-1.25-3.59,15.51-10.55,16.35-10.84l13.44-4.64c.34-.12,16.5-3.71,18.25,1.43L352.51,601C353.83,604.83,354.19,607.54,348.81,609.4Z"/><path class="cls-3" d="M247.77,617.65,229,614.7c-5.62-.89-5.14-4.61-4.43-9.14L238.68,465c.67-4.28,18.76-2.69,19.64-2.55l14,2.22c.35.06,16.27,4.75,15.28,10.86L255.13,611.07C254.41,615.6,253.39,618.54,247.77,617.65Z"/><ellipse class="cls-3" cx="244.75" cy="497.06" rx="34.51" ry="20" transform="translate(-284.35 661.44) rotate(-81.04)"/><path class="cls-4" d="M307.23,296.69l-71,3c-6.48.23,5-20.93,5-21,2.87-10.84-2-32-3-55,0-20.53,18.8-37.95,39.32-37.95h0A41.4,41.4,0,0,1,318.83,227c-4.67,22.61-3.6,40.67,0,51.49C324,294,315.76,303.89,307.23,296.69Z"/><path class="cls-2" d="M323.23,371.87c4.21,0,19-15.06,8.54-28.26-4.15-5.24-5.84-11.58-6.87-15,.49-8-1.17-16.61-.67-24.54,0-5.58-2.69-9.47-8.61-9.47a587.21,587.21,0,0,1-78,0c-5.92,0-10.35,1-10.35,5.7,19.22,58.36,18.7,124.13-.41,178.38a10.66,10.66,0,0,0,10.76,11h78c5.92,0,10.77-4.56,10.77-10.14C318.13,457.74,322.84,371.87,323.23,371.87Z"/><rect class="cls-5" x="261.72" y="274.65" width="28.68" height="28.68" rx="10.5"/><path class="cls-6" d="M307.92,240.12c0,24.06-1.84,46.07-19.69,45.57-15.56-.44-38.71-4.59-45-45.57-4-25.85,28.62-43.7,32.34-43.56C293.43,197.25,307.92,216.06,307.92,240.12Z"/><path class="cls-5" d="M306.23,240.65c-.22,22.78-3.61,46.23-23,42-10.7-2.32-27.55-6.12-38-42-8.7-29.91,16-42,31-45C301.13,190.71,306.52,210.45,306.23,240.65Z"/><path class="cls-7" d="M293.76,251.66l-.19.07v-.07"/><circle class="cls-8" cx="293.92" cy="233.46" r="3.31"/><circle class="cls-8" cx="267.92" cy="234.46" r="3.31"/><path class="cls-8" d="M274.09,227c-2.28,2.59-6.56-1.72-10.12.33a1.69,1.69,0,0,1-2.18-.34h0c-.89-.83-.9-1.69-.07-1.9,5.1-2.55,10.5,3.59,13.62.42.49-.46.54-.57.14.06h0A4.12,4.12,0,0,1,274.09,227Z"/><path class="cls-8" d="M287.4,226.49c2.15,2.69,6.63-1.4,10.09.81a1.68,1.68,0,0,0,2.19-.24h0c.93-.78,1-1.64.16-1.89-4.81-2.7-10.91,2.81-13.63-.22-.46-.49-.51-.59-.13.05h0A4,4,0,0,0,287.4,226.49Z"/><path class="cls-2" d="M348.32,439.48h0c4.95-3.51,6.8-9.5,4.1-13.32l-50.84-71.82c-3.18-4.49-9-4.07-13.92-.56h0c-5,3.51-7.51,12.53-4.81,16.34l57,66.36C342.53,440.3,343.36,443,348.32,439.48Z"/><path class="cls-6" d="M286.05,249.94c.63-3.89,1-3.86.9-6.08.05-2.52-1.05-2.12-2.14-1.78s-2.19.65-2.25-1.72c-.19-2,1-5,.83-7.1.27,0-.07,4.77.37,6.17.33,1.68,1.64.81,2.7.53s1.92,0,1.57,3.23C287.81,246.12,286.34,249.89,286.05,249.94Z"/><path class="cls-6" d="M273,252.74c.3,1.44-.67,1.64-1.87,1.93-.94.24-1.88.48-1.95,1.94-.17,1.31.62,1.77.45,3.13a7.69,7.69,0,0,0,.58-3c0-1.31,1.1-1.3,2.34-1.4.84-.07,1.41-.62,1.37-2.58s-.64-1.27-.62-1.88C273.12,251,272.75,251.53,273,252.74Z"/><path class="cls-4" d="M279.37,192.12c15.15-2.57,29.07,20.93,27.86,24.57-.9,2.7.36-4.93-11.53-11.06-13.73-7.08-36.72-4.49-36.89-4.06C257.77,204.22,266.18,194.35,279.37,192.12Z"/><path class="cls-9" d="M295.23,256.69c-3-2.43-7.34-2.79-9.59-.81-2.53-2-7.46-1.62-10.41.81-2.36,1.94-.52,9.46,4,12,4.16,2.33,7.84,2.74,10,2.31a5.1,5.1,0,0,0,3-1.31C296,266.15,297.59,258.63,295.23,256.69Z"/><path class="cls-10" d="M279.11,268.9c-3.16-1.77-4.87-5.66-5.12-8.53-.16-1.79.22-3.17,1.08-3.88,3-2.46,7.86-2.87,10.57-.93,2.38-1.92,6.79-1.51,9.75.93a4.22,4.22,0,0,1,1.2,3.21,14.76,14.76,0,0,1-4.19,10.17,5.26,5.26,0,0,1-3.12,1.37,8.53,8.53,0,0,1-1.74.16A17.25,17.25,0,0,1,279.11,268.9Zm6.7-12.83-.16.13-.16-.12c-2.46-1.91-7.27-1.53-10.1.8-.72.59-1.05,1.85-.91,3.45.26,2.83,2,6.53,4.87,8.14,4.13,2.31,7.78,2.7,9.85,2.28a4.82,4.82,0,0,0,2.86-1.25,14.19,14.19,0,0,0,4-9.79,3.73,3.73,0,0,0-1-2.83h0a9,9,0,0,0-5.58-2A5.48,5.48,0,0,0,285.81,256.07Z"/><path class="cls-11" d="M294.54,260c-.54,2.94-2,6.94-7.48,6.94-4.77,0-9-3.65-10.62-7.09l-.06-.11h18.16"/><path class="cls-10" d="M276.22,259.92l-.07-.13-.16-.35h18.55v.5h-.09l.33.06c-.86,4.74-3.46,7.14-7.72,7.14C282.2,267.14,277.92,263.5,276.22,259.92Zm.56,0c1.69,3.29,5.79,6.7,10.28,6.7,4,0,6.39-2.19,7.22-6.7Z"/><path class="cls-12" d="M287,377.76c6.93,0,12.32-3.19,15-8.94,4-8.72.44-20.43-9.07-29.84a1,1,0,1,0-1.4,1.42c8.9,8.81,12.29,19.64,8.65,27.58-2.5,5.45-7.92,8.27-14.87,7.71a1,1,0,1,0-.16,2C285.79,377.73,286.42,377.76,287,377.76Z"/><rect class="cls-1" x="110.23" y="366.69" width="77" height="3" rx="1.5"/><rect class="cls-1" x="108.23" y="386.69" width="77" height="3" rx="1.5"/><rect class="cls-1" x="75.23" y="376.69" width="110" height="3" rx="1.5"/><path class="cls-2" d="M226.07,449.34h0c5.36-2.84,8-8.55,5.77-12.68l-41.2-77.76c-2.58-4.86-8.37-5.18-13.74-2.34h0c-5.37,2.85-9.05,11.47-6.86,15.6l48,73.12C220.22,449.41,220.7,452.18,226.07,449.34Z"/><path class="cls-13" d="M415.14,722.9l-38,10.51c-6.78,1.88-13.71-1.58-15.39-7.68l-.06-.21a10.35,10.35,0,0,1,9.65-13.07l37-10.83c6.38-3.31,14.33.47,16,6.57l.06.21C426.08,714.5,421.92,721,415.14,722.9Z"/><rect class="cls-14" x="365.73" y="722.95" width="55.88" height="1.14" rx="0.5" transform="translate(-178.65 131.14) rotate(-15.46)"/><rect class="cls-5" x="360.33" y="701.78" width="16.72" height="18.25" rx="5.57" transform="translate(-176.19 124.02) rotate(-15.46)"/><path class="cls-5" d="M409.22,709.16l-34.07,9.42a2.29,2.29,0,0,1-2.81-1.59l-.91-3.29c-.33-1.21-.83-6.87.38-7.21l35.28-5a2.3,2.3,0,0,1,2.81,1.59l.91,3.3A2.29,2.29,0,0,1,409.22,709.16Z"/><path class="cls-13" d="M211.93,748.25,177.47,729.1c-6.15-3.41-8.67-10.73-5.59-16.26l.11-.2a10.34,10.34,0,0,1,16-2.55l34,18.2c6.87,2.11,9.89,10.38,6.82,15.91l-.11.2C225.63,749.93,218.08,751.66,211.93,748.25Z"/><rect class="cls-14" x="168.26" y="733.07" width="55.88" height="1.14" rx="0.5" transform="translate(380.91 -2.98) rotate(29.05)"/><rect class="cls-5" x="178.86" y="698" width="16.72" height="18.25" rx="5.57" transform="translate(366.91 -1.95) rotate(29.05)"/><path class="cls-5" d="M217.35,734.3l-30.9-17.17a2.28,2.28,0,0,1-.89-3.1l1.66-3c.61-1.09,4.22-5.48,5.32-4.87l28.69,21.15a2.29,2.29,0,0,1,.88,3.1l-1.66,3A2.28,2.28,0,0,1,217.35,734.3Z"/><rect class="cls-5" x="349.26" y="425.33" width="20.24" height="36.53" rx="8" transform="translate(-201.83 338.86) rotate(-40.42)"/><rect class="cls-5" x="226.26" y="436.33" width="20.24" height="36.53" rx="8" transform="translate(-238.32 261.74) rotate(-40.42)"/><path class="cls-3" d="M187.26,708.53,181.2,705c-5.72-3.3-5.27-5.63-2-11.34,12.72-38.07,25.67-71.32,44.58-86.46a12,12,0,0,1,16.39-4.39l6.06,3.5a12,12,0,0,1,4.39,16.39l-52.42,82C194.93,710.4,193,711.83,187.26,708.53Z"/><path class="cls-3" d="M369.19,708.57l-6.77,1.75c-6.39,1.65-6.54-2.24-8.19-8.63-17.59-36.07-32.82-67-29.94-91a12,12,0,0,1,8.62-14.62l6.78-1.75a12,12,0,0,1,14.62,8.62l21.92,94.75C377.88,704.08,375.58,706.92,369.19,708.57Z"/><path class="cls-4" d="M245.23,211.69c-6.11,11.9-6.89,23.33-4.35,24.63s13,8.65,11.35-4.63c-1.87-15.33,8.54-36,9-36C264.08,195.63,251.34,199.78,245.23,211.69Z"/><path class="cls-4" d="M242,256.88c2.89,17.15,9.62,29.9,12.43,29.43s.49-14.53-.14-31.91c-1.18-32.67-5.51-48.81-10.31-30.21A72.88,72.88,0,0,0,242,256.88Z"/><rect class="cls-15" width="500" height="750" transform="translate(500 750) rotate(-180)"/><g class="cls-16"><polygon class="cls-1" points="941.91 186.51 867.91 177.51 874.91 225.51 779.91 184.51 717.91 231.51 701.91 178.51 616.91 201.51 664.91 141.51 630.91 95.51 704.91 108.51 686.91 60.51 749.49 98.07 796.91 50.51 785.85 104.08 865.91 56.51 867.91 110.51 941.91 90.51 884.91 156.51 941.91 186.51"/><path class="cls-12" d="M716.83,234.84,700.56,181l-89,24.09,50.86-63.57L626.33,92.68l75.48,13.26L683,55.85l66.15,39.7,51-51.19-11.5,55.69,79.06-47,2,54.86,77.87-21.05-59.62,69,64.4,33.89-82.2-10,7.14,49-97.22-42Zm-13.57-58.76L719,228.18l60.64-46,92.78,40-6.86-47,65.8,8-49.6-26.1,54.38-63L866,113.1,864,60,783,108.12,793.6,56.67l-43.79,43.92-59-35.41L708,111.09,635.49,98.35l31.94,43.21L622.29,198Z"/></g><path d="M688.94,138.76h-5.38v17.68a3.29,3.29,0,0,1-.68,2.27,2.48,2.48,0,0,1-3.54,0,3.23,3.23,0,0,1-.69-2.26V138.76h-5.38a2.74,2.74,0,0,1-1.88-.55,1.91,1.91,0,0,1-.61-1.47,1.86,1.86,0,0,1,.64-1.5,2.78,2.78,0,0,1,1.85-.55h15.67a2.73,2.73,0,0,1,1.9.57,2.05,2.05,0,0,1,0,3A2.79,2.79,0,0,1,688.94,138.76Z"/><path d="M701,148.62h-1.73v7.82a3.24,3.24,0,0,1-.68,2.28,2.33,2.33,0,0,1-1.78.73,2.26,2.26,0,0,1-1.82-.77,3.38,3.38,0,0,1-.65-2.24V137.71a2.59,2.59,0,0,1,3-3h8a25.35,25.35,0,0,1,2.84.14,7.17,7.17,0,0,1,2.12.58,6.1,6.1,0,0,1,2,1.38,6,6,0,0,1,1.34,2.08,7,7,0,0,1,.45,2.51,6.08,6.08,0,0,1-1.53,4.35A8.79,8.79,0,0,1,708,148a9,9,0,0,1,2.51,2.06,20.78,20.78,0,0,1,2.13,2.9,20.47,20.47,0,0,1,1.46,2.77,5.37,5.37,0,0,1,.52,1.7,1.8,1.8,0,0,1-.3,1,2.23,2.23,0,0,1-.84.74,2.54,2.54,0,0,1-1.23.28,2.37,2.37,0,0,1-1.39-.39,3.66,3.66,0,0,1-1-1c-.28-.4-.64-1-1.11-1.76l-2-3.29a19.09,19.09,0,0,0-1.9-2.75,4.58,4.58,0,0,0-1.71-1.3A5.87,5.87,0,0,0,701,148.62Zm2.82-10.22h-4.55v6.69h4.42a12.65,12.65,0,0,0,3-.31,3.54,3.54,0,0,0,1.85-1.05,3,3,0,0,0,.64-2,3.19,3.19,0,0,0-.52-1.79,3.15,3.15,0,0,0-1.43-1.15A10.38,10.38,0,0,0,703.83,138.4Z"/><path d="M719,156.44V137.27a3.18,3.18,0,0,1,.68-2.24,2.26,2.26,0,0,1,1.76-.75,2.32,2.32,0,0,1,1.8.74,3.19,3.19,0,0,1,.69,2.25v19.17a3.23,3.23,0,0,1-.69,2.26,2.33,2.33,0,0,1-1.8.75,2.28,2.28,0,0,1-1.75-.76A3.22,3.22,0,0,1,719,156.44Z"/><path d="M751.71,149.14v4.66a5,5,0,0,1-.18,1.49,2.33,2.33,0,0,1-.68,1,6.18,6.18,0,0,1-1.25.87,20.29,20.29,0,0,1-4.25,1.74,17.33,17.33,0,0,1-4.45.55,14.38,14.38,0,0,1-5.11-.87,10.8,10.8,0,0,1-3.94-2.5,11.16,11.16,0,0,1-2.49-4,14.68,14.68,0,0,1-.88-5.23,15.35,15.35,0,0,1,.85-5.19,10.69,10.69,0,0,1,2.49-4,10.92,10.92,0,0,1,4-2.52,15.39,15.39,0,0,1,5.35-.87,13.45,13.45,0,0,1,4.35.65,9.57,9.57,0,0,1,3.07,1.66,7.24,7.24,0,0,1,1.77,2.1,4.3,4.3,0,0,1,.6,2,2.12,2.12,0,0,1-.69,1.59,2.34,2.34,0,0,1-1.65.65,2.3,2.3,0,0,1-1.84-.95,17.85,17.85,0,0,0-1.55-2.15,4.85,4.85,0,0,0-1.7-1.23,6.5,6.5,0,0,0-2.73-.5,7.54,7.54,0,0,0-3,.59,6.17,6.17,0,0,0-2.3,1.71,7.53,7.53,0,0,0-1.46,2.75,12,12,0,0,0-.51,3.6,9.88,9.88,0,0,0,2,6.59,6.82,6.82,0,0,0,5.49,2.31,11.12,11.12,0,0,0,3.21-.45,15.94,15.94,0,0,0,3-1.28v-4h-3.81a4.29,4.29,0,0,1-2.09-.41,1.51,1.51,0,0,1-.7-1.42,1.7,1.7,0,0,1,.59-1.34,2.26,2.26,0,0,1,1.6-.53h5.59a7.3,7.3,0,0,1,1.75.18,2,2,0,0,1,1.15.81A3.4,3.4,0,0,1,751.71,149.14Z"/><path d="M778.19,149.14v4.66a5,5,0,0,1-.18,1.49,2.42,2.42,0,0,1-.68,1,6.18,6.18,0,0,1-1.25.87,20.29,20.29,0,0,1-4.25,1.74,17.33,17.33,0,0,1-4.45.55,14.38,14.38,0,0,1-5.11-.87,10.8,10.8,0,0,1-3.94-2.5,11.16,11.16,0,0,1-2.49-4,14.68,14.68,0,0,1-.88-5.23,15.35,15.35,0,0,1,.85-5.19,10.45,10.45,0,0,1,2.49-4,10.92,10.92,0,0,1,4-2.52,15.35,15.35,0,0,1,5.35-.87,13.49,13.49,0,0,1,4.35.65,9.57,9.57,0,0,1,3.07,1.66,7.24,7.24,0,0,1,1.77,2.1,4.3,4.3,0,0,1,.6,2,2.12,2.12,0,0,1-.69,1.59,2.34,2.34,0,0,1-1.65.65,2.3,2.3,0,0,1-1.84-.95,17.85,17.85,0,0,0-1.55-2.15,4.85,4.85,0,0,0-1.7-1.23,6.5,6.5,0,0,0-2.73-.5,7.54,7.54,0,0,0-3,.59,6.17,6.17,0,0,0-2.3,1.71,7.53,7.53,0,0,0-1.46,2.75,12,12,0,0,0-.51,3.6,9.88,9.88,0,0,0,2,6.59,6.81,6.81,0,0,0,5.48,2.31,11.19,11.19,0,0,0,3.22-.45,15.94,15.94,0,0,0,3-1.28v-4h-3.82a4.27,4.27,0,0,1-2.08-.41,1.51,1.51,0,0,1-.7-1.42,1.7,1.7,0,0,1,.59-1.34,2.26,2.26,0,0,1,1.6-.53h5.59a7.3,7.3,0,0,1,1.75.18,2,2,0,0,1,1.15.81A3.4,3.4,0,0,1,778.19,149.14Z"/><path d="M798.92,138.5h-11.1v6H798a2.42,2.42,0,0,1,1.69.51,1.72,1.72,0,0,1,.56,1.33,1.82,1.82,0,0,1-.55,1.36,2.39,2.39,0,0,1-1.7.52H787.82v6.92h11.49a2.53,2.53,0,0,1,1.75.54,1.87,1.87,0,0,1,.59,1.44,1.83,1.83,0,0,1-.59,1.4,2.53,2.53,0,0,1-1.75.54h-13.4a2.57,2.57,0,0,1-3-3v-18.3a4.12,4.12,0,0,1,.31-1.73,2,2,0,0,1,1-1,4.23,4.23,0,0,1,1.72-.31h13a2.55,2.55,0,0,1,1.76.53,1.75,1.75,0,0,1,.57,1.37,1.79,1.79,0,0,1-.57,1.38A2.55,2.55,0,0,1,798.92,138.5Z"/><path d="M812.19,148.62h-1.73v7.82a3.24,3.24,0,0,1-.68,2.28,2.32,2.32,0,0,1-1.77.73,2.26,2.26,0,0,1-1.83-.77,3.38,3.38,0,0,1-.65-2.24V137.71a2.6,2.6,0,0,1,3-3h8a25.35,25.35,0,0,1,2.84.14,7.33,7.33,0,0,1,2.13.58,6.16,6.16,0,0,1,2,1.38,6,6,0,0,1,1.34,2.08,7,7,0,0,1,.45,2.51,6.08,6.08,0,0,1-1.53,4.35,8.79,8.79,0,0,1-4.66,2.31,9,9,0,0,1,2.51,2.06,20,20,0,0,1,2.13,2.9,20.47,20.47,0,0,1,1.46,2.77,5.48,5.48,0,0,1,.53,1.7,1.81,1.81,0,0,1-.31,1,2.23,2.23,0,0,1-.84.74,2.54,2.54,0,0,1-1.23.28,2.37,2.37,0,0,1-1.39-.39,3.66,3.66,0,0,1-1-1c-.28-.4-.64-1-1.11-1.76L818,153a19.09,19.09,0,0,0-1.9-2.75,4.58,4.58,0,0,0-1.71-1.3A5.87,5.87,0,0,0,812.19,148.62ZM815,138.4h-4.55v6.69h4.42a12.65,12.65,0,0,0,3-.31,3.54,3.54,0,0,0,1.85-1.05,3,3,0,0,0,.64-2,3.11,3.11,0,0,0-.52-1.79,3.15,3.15,0,0,0-1.43-1.15A10.38,10.38,0,0,0,815,138.4Z"/><path d="M846.06,138.5H835v6h10.23a2.41,2.41,0,0,1,1.68.51,1.72,1.72,0,0,1,.56,1.33,1.82,1.82,0,0,1-.55,1.36,2.38,2.38,0,0,1-1.69.52H835v6.92h11.49a2.51,2.51,0,0,1,1.75.54,1.87,1.87,0,0,1,.59,1.44,1.83,1.83,0,0,1-.59,1.4,2.51,2.51,0,0,1-1.75.54H833a2.58,2.58,0,0,1-3-3v-18.3a4.12,4.12,0,0,1,.31-1.73,2,2,0,0,1,1-1,4.23,4.23,0,0,1,1.72-.31h13a2.53,2.53,0,0,1,1.75.53,1.75,1.75,0,0,1,.57,1.37,1.79,1.79,0,0,1-.57,1.38A2.53,2.53,0,0,1,846.06,138.5Z"/><path d="M855.75,134.69h6.43a17.33,17.33,0,0,1,4.3.47,7.92,7.92,0,0,1,3.25,1.74q3.79,3.25,3.8,9.9a19.76,19.76,0,0,1-.38,4,11.79,11.79,0,0,1-1.18,3.26,10.19,10.19,0,0,1-2,2.6,8.81,8.81,0,0,1-2.14,1.41,10.22,10.22,0,0,1-2.5.75,19.56,19.56,0,0,1-3,.21h-6.43a4,4,0,0,1-2-.4,1.92,1.92,0,0,1-.89-1.15,7.18,7.18,0,0,1-.21-1.92V137.71a2.59,2.59,0,0,1,3-3Zm1.91,3.9v16.52h3.74q1.23,0,1.92-.06a6.19,6.19,0,0,0,1.45-.34,3.82,3.82,0,0,0,1.29-.74q2.48-2.1,2.47-7.21a10.64,10.64,0,0,0-1.08-5.39,4.87,4.87,0,0,0-2.68-2.29,13.53,13.53,0,0,0-3.86-.49Z"/><g class="cls-16"><polygon class="cls-1" points="1429.75 187.53 1348.24 177.64 1355.95 230.41 1251.3 185.34 1183.01 237.01 1165.38 178.74 1071.75 204.03 1124.62 138.06 1087.17 87.48 1168.68 101.78 1148.86 49 1217.8 90.29 1270.03 38.01 1257.84 96.9 1346.03 44.61 1348.24 103.98 1429.75 81.99 1366.96 154.55 1429.75 187.53"/><path class="cls-12" d="M1181.92,240.34,1164,181.18l-97.67,26.37L1122.1,138l-39.52-53.36,83,14.55L1145,44.34l72.51,43.43,55.86-55.91-12.62,61,87.19-51.7,2.23,60.22,85.4-23L1370.12,154l70.21,36.88-89.74-10.89,7.85,53.73-106.86-46Zm-15.19-64,17.36,57.38L1251,183l102.43,44.12-7.57-51.82,73.29,8.89-55.37-29.08L1424,85.62l-77.63,20.94L1344.16,48,1255,100.93l11.75-56.77-48.6,48.65-65.37-39.15,19,50.69-80-14,35.39,47.79-50,62.39Z"/></g><path d="M1151.09,135h-5.92v19.44a3.56,3.56,0,0,1-.75,2.49,2.75,2.75,0,0,1-3.91,0,3.55,3.55,0,0,1-.76-2.48V135h-5.92a3,3,0,0,1-2.07-.61,2.28,2.28,0,0,1,0-3.26,3.07,3.07,0,0,1,2-.6h17.26a3.08,3.08,0,0,1,2.1.62,2.13,2.13,0,0,1,.68,1.63,2,2,0,0,1-.69,1.61A3.09,3.09,0,0,1,1151.09,135Z"/><path d="M1164.39,145.87h-1.91v8.6a3.56,3.56,0,0,1-.75,2.5,2.53,2.53,0,0,1-2,.8,2.5,2.5,0,0,1-2-.83,3.71,3.71,0,0,1-.72-2.47V133.88a2.86,2.86,0,0,1,3.33-3.32h8.83a25.37,25.37,0,0,1,3.13.16,7.59,7.59,0,0,1,2.34.63,6.79,6.79,0,0,1,3.71,3.8,7.73,7.73,0,0,1,.5,2.77,6.71,6.71,0,0,1-1.69,4.78,9.77,9.77,0,0,1-5.13,2.54,9.92,9.92,0,0,1,2.76,2.26,23.3,23.3,0,0,1,2.35,3.18,25,25,0,0,1,1.61,3,6.09,6.09,0,0,1,.57,1.87,1.91,1.91,0,0,1-.33,1.05,2.39,2.39,0,0,1-.93.82,2.92,2.92,0,0,1-1.35.3,2.71,2.71,0,0,1-1.54-.42,4.27,4.27,0,0,1-1.07-1.09c-.3-.44-.7-1.08-1.21-1.93l-2.18-3.62a21,21,0,0,0-2.09-3,5.13,5.13,0,0,0-1.88-1.42A6.32,6.32,0,0,0,1164.39,145.87Zm3.11-11.24h-5V142h4.87a13.92,13.92,0,0,0,3.29-.34,3.91,3.91,0,0,0,2-1.15,3.3,3.3,0,0,0,.7-2.24,3.52,3.52,0,0,0-.56-2,3.44,3.44,0,0,0-1.58-1.27A11.51,11.51,0,0,0,1167.5,134.63Z"/><path d="M1184.25,154.47V133.39a3.52,3.52,0,0,1,.75-2.46,2.49,2.49,0,0,1,1.93-.83,2.62,2.62,0,0,1,2,.82,3.53,3.53,0,0,1,.76,2.47v21.08a3.55,3.55,0,0,1-.76,2.48,2.58,2.58,0,0,1-2,.82,2.45,2.45,0,0,1-1.92-.83A3.51,3.51,0,0,1,1184.25,154.47Z"/><path d="M1220.24,146.44v5.13a5.12,5.12,0,0,1-.21,1.63,2.56,2.56,0,0,1-.74,1.11,7.19,7.19,0,0,1-1.38.95,21.88,21.88,0,0,1-4.68,1.91,19,19,0,0,1-4.9.6,16,16,0,0,1-5.63-.94,12,12,0,0,1-4.34-2.76,12.32,12.32,0,0,1-2.75-4.38,16.36,16.36,0,0,1-1-5.75,16.76,16.76,0,0,1,.93-5.71,11.75,11.75,0,0,1,2.75-4.4,11.92,11.92,0,0,1,4.4-2.77,17,17,0,0,1,5.89-1,14.35,14.35,0,0,1,4.79.73,10.62,10.62,0,0,1,3.39,1.81,8,8,0,0,1,2,2.32,4.68,4.68,0,0,1,.66,2.17,2.3,2.3,0,0,1-.76,1.74,2.5,2.5,0,0,1-1.82.73,2.48,2.48,0,0,1-1.12-.28,2.67,2.67,0,0,1-.91-.76,21,21,0,0,0-1.7-2.38,5.53,5.53,0,0,0-1.87-1.35,7.26,7.26,0,0,0-3-.55,8.32,8.32,0,0,0-3.36.65,6.94,6.94,0,0,0-2.54,1.88,8.63,8.63,0,0,0-1.61,3,13.4,13.4,0,0,0-.55,4q0,4.71,2.16,7.25a7.54,7.54,0,0,0,6,2.54,12.36,12.36,0,0,0,3.54-.5,17.2,17.2,0,0,0,3.35-1.4v-4.35h-4.2a4.68,4.68,0,0,1-2.3-.45,1.65,1.65,0,0,1-.78-1.55,1.91,1.91,0,0,1,.65-1.48,2.56,2.56,0,0,1,1.77-.59h6.16a7.5,7.5,0,0,1,1.92.21,2.15,2.15,0,0,1,1.27.89A3.67,3.67,0,0,1,1220.24,146.44Z"/><path d="M1249.4,146.44v5.13a5.15,5.15,0,0,1-.2,1.63,2.56,2.56,0,0,1-.74,1.11,7.19,7.19,0,0,1-1.38.95,21.88,21.88,0,0,1-4.68,1.91,19,19,0,0,1-4.9.6,16,16,0,0,1-5.63-.94,12,12,0,0,1-4.34-2.76,12.32,12.32,0,0,1-2.75-4.38,16.36,16.36,0,0,1-1-5.75,16.76,16.76,0,0,1,.93-5.71,11.75,11.75,0,0,1,2.75-4.4,11.92,11.92,0,0,1,4.4-2.77,16.92,16.92,0,0,1,5.89-1,14.35,14.35,0,0,1,4.79.73,10.62,10.62,0,0,1,3.39,1.81,8.12,8.12,0,0,1,2,2.32,4.68,4.68,0,0,1,.66,2.17,2.3,2.3,0,0,1-.76,1.74,2.5,2.5,0,0,1-1.82.73,2.48,2.48,0,0,1-1.12-.28,2.67,2.67,0,0,1-.91-.76,21,21,0,0,0-1.7-2.38,5.64,5.64,0,0,0-1.87-1.35,7.26,7.26,0,0,0-3-.55,8.37,8.37,0,0,0-3.37.65,7,7,0,0,0-2.53,1.88,8.47,8.47,0,0,0-1.61,3,13.39,13.39,0,0,0-.56,4c0,3.14.73,5.56,2.17,7.25a7.54,7.54,0,0,0,6,2.54,12.24,12.24,0,0,0,3.53-.5,17,17,0,0,0,3.36-1.4v-4.35h-4.21a4.66,4.66,0,0,1-2.29-.45,1.65,1.65,0,0,1-.78-1.55,1.91,1.91,0,0,1,.65-1.48,2.54,2.54,0,0,1,1.77-.59h6.16a7.61,7.61,0,0,1,1.92.21,2.15,2.15,0,0,1,1.27.89A3.67,3.67,0,0,1,1249.4,146.44Z"/><path d="M1272.24,134.74H1260v6.57h11.27a2.69,2.69,0,0,1,1.85.56,1.88,1.88,0,0,1,.61,1.47,1.94,1.94,0,0,1-.6,1.48,2.58,2.58,0,0,1-1.86.58H1260V153h12.66a2.77,2.77,0,0,1,1.92.59,2,2,0,0,1,.65,1.58,2,2,0,0,1-.65,1.55,2.77,2.77,0,0,1-1.92.59h-14.76a2.85,2.85,0,0,1-3.33-3.32V133.88a4.33,4.33,0,0,1,.35-1.9,2.11,2.11,0,0,1,1.08-1.08,4.55,4.55,0,0,1,1.9-.34h14.33a2.75,2.75,0,0,1,1.93.58,1.93,1.93,0,0,1,.64,1.5,2,2,0,0,1-.64,1.53A2.8,2.8,0,0,1,1272.24,134.74Z"/><path d="M1286.86,145.87H1285v8.6a3.56,3.56,0,0,1-.75,2.5,2.53,2.53,0,0,1-2,.8,2.5,2.5,0,0,1-2-.83,3.71,3.71,0,0,1-.72-2.47V133.88a2.86,2.86,0,0,1,3.33-3.32h8.83a25.37,25.37,0,0,1,3.13.16,7.59,7.59,0,0,1,2.34.63,6.79,6.79,0,0,1,3.71,3.8,7.73,7.73,0,0,1,.5,2.77,6.71,6.71,0,0,1-1.69,4.78,9.77,9.77,0,0,1-5.13,2.54,9.92,9.92,0,0,1,2.76,2.26,23.3,23.3,0,0,1,2.35,3.18,25,25,0,0,1,1.61,3,6.09,6.09,0,0,1,.57,1.87,1.91,1.91,0,0,1-.33,1.05,2.39,2.39,0,0,1-.93.82,2.92,2.92,0,0,1-1.35.3,2.71,2.71,0,0,1-1.54-.42,4.27,4.27,0,0,1-1.07-1.09c-.3-.44-.7-1.08-1.21-1.93l-2.18-3.62a21,21,0,0,0-2.09-3,5.13,5.13,0,0,0-1.88-1.42A6.32,6.32,0,0,0,1286.86,145.87Zm3.11-11.24h-5V142h4.87a13.92,13.92,0,0,0,3.29-.34,3.91,3.91,0,0,0,2-1.15,3.3,3.3,0,0,0,.7-2.24,3.52,3.52,0,0,0-.56-2,3.44,3.44,0,0,0-1.58-1.27A11.51,11.51,0,0,0,1290,134.63Z"/><path d="M1324.16,134.74h-12.23v6.57h11.26a2.7,2.7,0,0,1,1.86.56,1.88,1.88,0,0,1,.61,1.47,1.94,1.94,0,0,1-.6,1.48,2.6,2.6,0,0,1-1.87.58h-11.26V153h12.65a2.79,2.79,0,0,1,1.93.59,2.07,2.07,0,0,1,.65,1.58,2,2,0,0,1-.65,1.55,2.79,2.79,0,0,1-1.93.59h-14.75a3.47,3.47,0,0,1-2.56-.79,3.51,3.51,0,0,1-.77-2.53V133.88a4.49,4.49,0,0,1,.34-1.9,2.16,2.16,0,0,1,1.09-1.08,4.55,4.55,0,0,1,1.9-.34h14.33a2.75,2.75,0,0,1,1.93.58,1.93,1.93,0,0,1,.63,1.5,2,2,0,0,1-.63,1.53A2.8,2.8,0,0,1,1324.16,134.74Z"/><path d="M1334.84,130.56h7.08a19.21,19.21,0,0,1,4.74.51,8.68,8.68,0,0,1,3.58,1.92q4.18,3.57,4.19,10.88a21.42,21.42,0,0,1-.42,4.4,13.1,13.1,0,0,1-1.3,3.58,11.29,11.29,0,0,1-2.25,2.86,9.53,9.53,0,0,1-2.36,1.55,10.7,10.7,0,0,1-2.75.82,20.77,20.77,0,0,1-3.32.24H1335a4.4,4.4,0,0,1-2.23-.45,2.08,2.08,0,0,1-1-1.26,8.06,8.06,0,0,1-.23-2.11V133.88a2.86,2.86,0,0,1,3.33-3.32Zm2.11,4.29V153h4.11c.9,0,1.61,0,2.12-.07a6.5,6.5,0,0,0,1.59-.37,4.12,4.12,0,0,0,1.43-.82c1.82-1.53,2.72-4.17,2.72-7.92a11.73,11.73,0,0,0-1.19-5.93,5.33,5.33,0,0,0-3-2.51,14.53,14.53,0,0,0-4.24-.54Z"/><g class="cls-16"><polygon class="cls-1" points="2422.75 181.53 2341.24 171.64 2348.95 224.41 2244.3 179.34 2176.01 231.01 2158.38 172.74 2064.75 198.03 2117.62 132.06 2080.17 81.48 2161.68 95.78 2141.86 43 2210.8 84.29 2263.03 32.01 2250.84 90.9 2339.03 38.61 2341.24 97.98 2422.75 75.99 2359.96 148.55 2422.75 181.53"/><path class="cls-12" d="M2174.92,234.34,2157,175.18l-97.67,26.37L2115.1,132l-39.52-53.36,83,14.55L2138,38.34l72.51,43.43,55.86-55.91-12.62,61,87.19-51.7,2.23,60.22,85.4-23L2363.12,148l70.21,36.88-89.74-10.89,7.85,53.73-106.86-46Zm-15.19-64,17.36,57.38L2244,177l102.43,44.12-7.57-51.82,73.29,8.89-55.37-29.08L2417,79.62l-77.63,20.94L2337.16,42,2248,94.93l11.75-56.77-48.6,48.65-65.37-39.15,19.05,50.69-80-14,35.39,47.79-50,62.39Z"/></g><path d="M2144.09,129h-5.92v19.44a3.56,3.56,0,0,1-.75,2.49,2.75,2.75,0,0,1-3.91,0,3.55,3.55,0,0,1-.76-2.48V129h-5.92a3,3,0,0,1-2.07-.61,2.28,2.28,0,0,1,0-3.26,3.07,3.07,0,0,1,2-.6h17.26a3.08,3.08,0,0,1,2.1.62,2.13,2.13,0,0,1,.68,1.63,2,2,0,0,1-.69,1.61A3.09,3.09,0,0,1,2144.09,129Z"/><path d="M2157.39,139.87h-1.91v8.6a3.56,3.56,0,0,1-.75,2.5,2.53,2.53,0,0,1-1.95.8,2.5,2.5,0,0,1-2-.83,3.71,3.71,0,0,1-.72-2.47V127.88a2.86,2.86,0,0,1,3.33-3.32h8.83a25.37,25.37,0,0,1,3.13.16,7.59,7.59,0,0,1,2.34.63,6.79,6.79,0,0,1,3.71,3.8,7.73,7.73,0,0,1,.5,2.77,6.71,6.71,0,0,1-1.69,4.78,9.77,9.77,0,0,1-5.13,2.54,9.92,9.92,0,0,1,2.76,2.26,23.3,23.3,0,0,1,2.35,3.18,25,25,0,0,1,1.61,3,6.09,6.09,0,0,1,.57,1.87,1.91,1.91,0,0,1-.33,1.05,2.39,2.39,0,0,1-.93.82,2.92,2.92,0,0,1-1.35.3,2.71,2.71,0,0,1-1.54-.42,4.27,4.27,0,0,1-1.07-1.09c-.3-.44-.7-1.08-1.21-1.93l-2.18-3.62a21,21,0,0,0-2.09-3,5.13,5.13,0,0,0-1.88-1.42A6.32,6.32,0,0,0,2157.39,139.87Zm3.11-11.24h-5V136h4.87a13.92,13.92,0,0,0,3.29-.34,3.91,3.91,0,0,0,2-1.15,3.3,3.3,0,0,0,.7-2.24,3.52,3.52,0,0,0-.56-2,3.44,3.44,0,0,0-1.58-1.27A11.51,11.51,0,0,0,2160.5,128.63Z"/><path d="M2177.25,148.47V127.39a3.52,3.52,0,0,1,.75-2.46,2.49,2.49,0,0,1,1.93-.83,2.62,2.62,0,0,1,2,.82,3.53,3.53,0,0,1,.76,2.47v21.08a3.55,3.55,0,0,1-.76,2.48,2.58,2.58,0,0,1-2,.82,2.45,2.45,0,0,1-1.92-.83A3.51,3.51,0,0,1,2177.25,148.47Z"/><path d="M2213.24,140.44v5.13a5.12,5.12,0,0,1-.21,1.63,2.56,2.56,0,0,1-.74,1.11,7.19,7.19,0,0,1-1.38.95,21.88,21.88,0,0,1-4.68,1.91,19,19,0,0,1-4.9.6,16,16,0,0,1-5.63-.94,12,12,0,0,1-4.34-2.76,12.32,12.32,0,0,1-2.75-4.38,16.36,16.36,0,0,1-1-5.75,16.76,16.76,0,0,1,.93-5.71,11.75,11.75,0,0,1,2.75-4.4,11.92,11.92,0,0,1,4.4-2.77,17,17,0,0,1,5.89-1,14.35,14.35,0,0,1,4.79.73,10.62,10.62,0,0,1,3.39,1.81,8,8,0,0,1,1.95,2.32,4.68,4.68,0,0,1,.66,2.17,2.3,2.3,0,0,1-.76,1.74,2.5,2.5,0,0,1-1.82.73,2.48,2.48,0,0,1-1.12-.28,2.67,2.67,0,0,1-.91-.76,21,21,0,0,0-1.7-2.38,5.53,5.53,0,0,0-1.87-1.35,7.26,7.26,0,0,0-3-.55,8.32,8.32,0,0,0-3.36.65,6.94,6.94,0,0,0-2.54,1.88,8.63,8.63,0,0,0-1.61,3,13.4,13.4,0,0,0-.55,4q0,4.71,2.16,7.25a7.54,7.54,0,0,0,6,2.54,12.36,12.36,0,0,0,3.54-.5,17.2,17.2,0,0,0,3.35-1.4v-4.35h-4.2a4.68,4.68,0,0,1-2.3-.45,1.65,1.65,0,0,1-.78-1.55,1.91,1.91,0,0,1,.65-1.48,2.56,2.56,0,0,1,1.77-.59h6.16a7.5,7.5,0,0,1,1.92.21,2.15,2.15,0,0,1,1.27.89A3.67,3.67,0,0,1,2213.24,140.44Z"/><path d="M2242.4,140.44v5.13a5.15,5.15,0,0,1-.2,1.63,2.56,2.56,0,0,1-.74,1.11,7.19,7.19,0,0,1-1.38.95,21.88,21.88,0,0,1-4.68,1.91,19,19,0,0,1-4.9.6,16,16,0,0,1-5.63-.94,12,12,0,0,1-4.34-2.76,12.32,12.32,0,0,1-2.75-4.38,16.36,16.36,0,0,1-1-5.75,16.76,16.76,0,0,1,.93-5.71,11.75,11.75,0,0,1,2.75-4.4,11.92,11.92,0,0,1,4.4-2.77,16.92,16.92,0,0,1,5.89-1,14.35,14.35,0,0,1,4.79.73,10.62,10.62,0,0,1,3.39,1.81,8.12,8.12,0,0,1,2,2.32,4.68,4.68,0,0,1,.66,2.17,2.3,2.3,0,0,1-.76,1.74,2.5,2.5,0,0,1-1.82.73,2.48,2.48,0,0,1-1.12-.28,2.67,2.67,0,0,1-.91-.76,21,21,0,0,0-1.7-2.38,5.64,5.64,0,0,0-1.87-1.35,7.26,7.26,0,0,0-3-.55,8.37,8.37,0,0,0-3.37.65,7,7,0,0,0-2.53,1.88,8.47,8.47,0,0,0-1.61,3,13.39,13.39,0,0,0-.56,4c0,3.14.73,5.56,2.17,7.25a7.54,7.54,0,0,0,6.05,2.54,12.24,12.24,0,0,0,3.53-.5,17,17,0,0,0,3.36-1.4v-4.35h-4.21a4.66,4.66,0,0,1-2.29-.45,1.65,1.65,0,0,1-.78-1.55,1.91,1.91,0,0,1,.65-1.48,2.54,2.54,0,0,1,1.77-.59h6.16a7.61,7.61,0,0,1,1.92.21,2.15,2.15,0,0,1,1.27.89A3.67,3.67,0,0,1,2242.4,140.44Z"/><path d="M2265.24,128.74H2253v6.57h11.27a2.69,2.69,0,0,1,1.85.56,1.88,1.88,0,0,1,.61,1.47,1.94,1.94,0,0,1-.6,1.48,2.58,2.58,0,0,1-1.86.58H2253V147h12.66a2.77,2.77,0,0,1,1.92.59,2,2,0,0,1,.65,1.58,2,2,0,0,1-.65,1.55,2.77,2.77,0,0,1-1.92.59h-14.76a2.85,2.85,0,0,1-3.33-3.32V127.88a4.33,4.33,0,0,1,.35-1.9,2.11,2.11,0,0,1,1.08-1.08,4.55,4.55,0,0,1,1.9-.34h14.33a2.75,2.75,0,0,1,1.93.58,1.93,1.93,0,0,1,.64,1.5,2,2,0,0,1-.64,1.53A2.8,2.8,0,0,1,2265.24,128.74Z"/><path d="M2279.86,139.87H2278v8.6a3.56,3.56,0,0,1-.75,2.5,2.53,2.53,0,0,1-1.95.8,2.5,2.5,0,0,1-2-.83,3.71,3.71,0,0,1-.72-2.47V127.88a2.86,2.86,0,0,1,3.33-3.32h8.83a25.37,25.37,0,0,1,3.13.16,7.59,7.59,0,0,1,2.34.63,6.79,6.79,0,0,1,3.71,3.8,7.73,7.73,0,0,1,.5,2.77,6.71,6.71,0,0,1-1.69,4.78,9.77,9.77,0,0,1-5.13,2.54,9.92,9.92,0,0,1,2.76,2.26,23.3,23.3,0,0,1,2.35,3.18,25,25,0,0,1,1.61,3,6.09,6.09,0,0,1,.57,1.87,1.91,1.91,0,0,1-.33,1.05,2.39,2.39,0,0,1-.93.82,2.92,2.92,0,0,1-1.35.3,2.71,2.71,0,0,1-1.54-.42,4.27,4.27,0,0,1-1.07-1.09c-.3-.44-.7-1.08-1.21-1.93l-2.18-3.62a21,21,0,0,0-2.09-3,5.13,5.13,0,0,0-1.88-1.42A6.32,6.32,0,0,0,2279.86,139.87Zm3.11-11.24h-5V136h4.87a13.92,13.92,0,0,0,3.29-.34,3.91,3.91,0,0,0,2-1.15,3.3,3.3,0,0,0,.7-2.24,3.52,3.52,0,0,0-.56-2,3.44,3.44,0,0,0-1.58-1.27A11.51,11.51,0,0,0,2283,128.63Z"/><path d="M2317.16,128.74h-12.23v6.57h11.26a2.7,2.7,0,0,1,1.86.56,1.88,1.88,0,0,1,.61,1.47,1.94,1.94,0,0,1-.6,1.48,2.6,2.6,0,0,1-1.87.58h-11.26V147h12.65a2.79,2.79,0,0,1,1.93.59,2.07,2.07,0,0,1,.65,1.58,2,2,0,0,1-.65,1.55,2.79,2.79,0,0,1-1.93.59h-14.75a3.47,3.47,0,0,1-2.56-.79,3.51,3.51,0,0,1-.77-2.53V127.88a4.49,4.49,0,0,1,.34-1.9,2.16,2.16,0,0,1,1.09-1.08,4.55,4.55,0,0,1,1.9-.34h14.33a2.75,2.75,0,0,1,1.93.58,1.93,1.93,0,0,1,.63,1.5,2,2,0,0,1-.63,1.53A2.8,2.8,0,0,1,2317.16,128.74Z"/><path d="M2327.84,124.56h7.08a19.21,19.21,0,0,1,4.74.51,8.68,8.68,0,0,1,3.58,1.92q4.19,3.57,4.19,10.88a21.42,21.42,0,0,1-.42,4.4,13.1,13.1,0,0,1-1.3,3.58,11.29,11.29,0,0,1-2.25,2.86,9.53,9.53,0,0,1-2.36,1.55,10.7,10.7,0,0,1-2.75.82,20.77,20.77,0,0,1-3.32.24H2328a4.4,4.4,0,0,1-2.23-.45,2.08,2.08,0,0,1-1-1.26,8.06,8.06,0,0,1-.23-2.11V127.88a2.86,2.86,0,0,1,3.33-3.32Zm2.11,4.29V147h4.11c.9,0,1.61,0,2.12-.07a6.5,6.5,0,0,0,1.59-.37,4.12,4.12,0,0,0,1.43-.82c1.82-1.53,2.72-4.17,2.72-7.92a11.73,11.73,0,0,0-1.19-5.93,5.33,5.33,0,0,0-3-2.51,14.53,14.53,0,0,0-4.24-.54Z"/><g class="cls-16"><polygon class="cls-1" points="1961.75 192.03 1880.24 182.14 1887.95 234.91 1783.3 189.84 1715.01 241.51 1697.38 183.24 1603.75 208.53 1656.62 142.56 1619.17 91.98 1700.68 106.28 1680.86 53.5 1749.8 94.79 1802.03 42.51 1789.84 101.4 1878.03 49.11 1880.24 108.48 1961.75 86.49 1898.96 159.05 1961.75 192.03"/><path class="cls-12" d="M1713.92,244.84,1696,185.68l-97.67,26.37,55.74-69.54-39.52-53.36,83,14.55L1677,48.84l72.51,43.43,55.86-55.91-12.62,61,87.19-51.7,2.23,60.22,85.4-23-65.42,75.6,70.21,36.88-89.74-10.89,7.85,53.73-106.86-46Zm-15.19-64,17.36,57.38L1783,187.54l102.43,44.12-7.57-51.82,73.29,8.89-55.37-29.08L1956,90.12l-77.63,20.94-2.17-58.52L1787,105.43l11.75-56.77-48.6,48.65-65.37-39.15,19,50.69-80-14,35.39,47.79-50,62.39Z"/></g><path d="M1683.09,139.53h-5.92V159a3.56,3.56,0,0,1-.75,2.49,2.75,2.75,0,0,1-3.91,0,3.55,3.55,0,0,1-.76-2.48V139.53h-5.92a3,3,0,0,1-2.07-.61,2.28,2.28,0,0,1,0-3.26,3.07,3.07,0,0,1,2-.6h17.26a3.08,3.08,0,0,1,2.1.62,2.13,2.13,0,0,1,.68,1.63,2,2,0,0,1-.69,1.61A3.09,3.09,0,0,1,1683.09,139.53Z"/><path d="M1696.39,150.37h-1.91V159a3.56,3.56,0,0,1-.75,2.5,2.53,2.53,0,0,1-2,.8,2.5,2.5,0,0,1-2-.83,3.71,3.71,0,0,1-.72-2.47V138.38a2.86,2.86,0,0,1,3.33-3.32h8.83a25.37,25.37,0,0,1,3.13.16,7.59,7.59,0,0,1,2.34.63,6.79,6.79,0,0,1,3.71,3.8,7.73,7.73,0,0,1,.5,2.77,6.71,6.71,0,0,1-1.69,4.78,9.77,9.77,0,0,1-5.13,2.54,9.92,9.92,0,0,1,2.76,2.26,23.3,23.3,0,0,1,2.35,3.18,25,25,0,0,1,1.61,3,6.09,6.09,0,0,1,.57,1.87,1.91,1.91,0,0,1-.33,1.05,2.39,2.39,0,0,1-.93.82,2.92,2.92,0,0,1-1.35.3,2.71,2.71,0,0,1-1.54-.42,4.27,4.27,0,0,1-1.07-1.09c-.3-.44-.7-1.08-1.21-1.93l-2.18-3.62a21,21,0,0,0-2.09-3,5.13,5.13,0,0,0-1.88-1.42A6.32,6.32,0,0,0,1696.39,150.37Zm3.11-11.24h-5v7.36h4.87a13.92,13.92,0,0,0,3.29-.34,3.91,3.91,0,0,0,2-1.15,3.3,3.3,0,0,0,.7-2.24,3.52,3.52,0,0,0-.56-2,3.44,3.44,0,0,0-1.58-1.27A11.51,11.51,0,0,0,1699.5,139.13Z"/><path d="M1716.25,159V137.89a3.52,3.52,0,0,1,.75-2.46,2.49,2.49,0,0,1,1.93-.83,2.62,2.62,0,0,1,2,.82,3.53,3.53,0,0,1,.76,2.47V159a3.55,3.55,0,0,1-.76,2.48,2.58,2.58,0,0,1-2,.82,2.45,2.45,0,0,1-1.92-.83A3.51,3.51,0,0,1,1716.25,159Z"/><path d="M1752.24,150.94v5.13a5.12,5.12,0,0,1-.21,1.63,2.56,2.56,0,0,1-.74,1.11,7.19,7.19,0,0,1-1.38.95,21.88,21.88,0,0,1-4.68,1.91,19,19,0,0,1-4.9.6,16,16,0,0,1-5.63-.94,12,12,0,0,1-4.34-2.76,12.32,12.32,0,0,1-2.75-4.38,16.36,16.36,0,0,1-1-5.75,16.76,16.76,0,0,1,.93-5.71,11.75,11.75,0,0,1,2.75-4.4,11.92,11.92,0,0,1,4.4-2.77,17,17,0,0,1,5.89-1,14.35,14.35,0,0,1,4.79.73,10.62,10.62,0,0,1,3.39,1.81,8,8,0,0,1,2,2.32,4.68,4.68,0,0,1,.66,2.17,2.3,2.3,0,0,1-.76,1.74,2.5,2.5,0,0,1-1.82.73,2.48,2.48,0,0,1-1.12-.28,2.67,2.67,0,0,1-.91-.76,21,21,0,0,0-1.7-2.38,5.53,5.53,0,0,0-1.87-1.35,7.26,7.26,0,0,0-3-.55,8.32,8.32,0,0,0-3.36.65,6.94,6.94,0,0,0-2.54,1.88,8.63,8.63,0,0,0-1.61,3,13.4,13.4,0,0,0-.55,4q0,4.71,2.16,7.25a7.54,7.54,0,0,0,6,2.54,12.36,12.36,0,0,0,3.54-.5,17.2,17.2,0,0,0,3.35-1.4v-4.35h-4.2a4.68,4.68,0,0,1-2.3-.45,1.65,1.65,0,0,1-.78-1.55,1.91,1.91,0,0,1,.65-1.48,2.54,2.54,0,0,1,1.77-.59h6.16a7.5,7.5,0,0,1,1.92.21,2.15,2.15,0,0,1,1.27.89A3.67,3.67,0,0,1,1752.24,150.94Z"/><path d="M1781.4,150.94v5.13a5.15,5.15,0,0,1-.2,1.63,2.56,2.56,0,0,1-.74,1.11,7.19,7.19,0,0,1-1.38.95,21.88,21.88,0,0,1-4.68,1.91,19,19,0,0,1-4.9.6,16,16,0,0,1-5.63-.94,12,12,0,0,1-4.34-2.76,12.32,12.32,0,0,1-2.75-4.38,16.36,16.36,0,0,1-1-5.75,16.76,16.76,0,0,1,.93-5.71,11.63,11.63,0,0,1,2.75-4.4,11.92,11.92,0,0,1,4.4-2.77,16.92,16.92,0,0,1,5.89-1,14.35,14.35,0,0,1,4.79.73,10.62,10.62,0,0,1,3.39,1.81,8.12,8.12,0,0,1,2,2.32,4.68,4.68,0,0,1,.66,2.17,2.3,2.3,0,0,1-.76,1.74,2.5,2.5,0,0,1-1.82.73,2.48,2.48,0,0,1-1.12-.28,2.67,2.67,0,0,1-.91-.76,22.31,22.31,0,0,0-1.7-2.38,5.64,5.64,0,0,0-1.87-1.35,7.26,7.26,0,0,0-3-.55,8.37,8.37,0,0,0-3.37.65,7,7,0,0,0-2.53,1.88,8.47,8.47,0,0,0-1.61,3,13.39,13.39,0,0,0-.56,4c0,3.14.73,5.56,2.17,7.25a7.54,7.54,0,0,0,6,2.54,12.24,12.24,0,0,0,3.53-.5,17,17,0,0,0,3.36-1.4v-4.35h-4.21a4.66,4.66,0,0,1-2.29-.45,1.65,1.65,0,0,1-.78-1.55,1.91,1.91,0,0,1,.65-1.48,2.54,2.54,0,0,1,1.77-.59h6.16a7.61,7.61,0,0,1,1.92.21,2.15,2.15,0,0,1,1.27.89A3.67,3.67,0,0,1,1781.4,150.94Z"/><path d="M1804.24,139.24H1792v6.57h11.27a2.69,2.69,0,0,1,1.85.56,1.88,1.88,0,0,1,.61,1.47,1.94,1.94,0,0,1-.6,1.48,2.58,2.58,0,0,1-1.86.58H1792v7.61h12.65a2.79,2.79,0,0,1,1.93.59,2,2,0,0,1,.65,1.58,2,2,0,0,1-.65,1.55,2.79,2.79,0,0,1-1.93.59h-14.75a3.43,3.43,0,0,1-2.55-.79,3.47,3.47,0,0,1-.78-2.53V138.38a4.33,4.33,0,0,1,.35-1.9,2.11,2.11,0,0,1,1.08-1.08,4.55,4.55,0,0,1,1.9-.34h14.33a2.75,2.75,0,0,1,1.93.58,1.93,1.93,0,0,1,.63,1.5,2,2,0,0,1-.63,1.53A2.8,2.8,0,0,1,1804.24,139.24Z"/><path d="M1818.86,150.37H1817V159a3.56,3.56,0,0,1-.75,2.5,2.53,2.53,0,0,1-2,.8,2.5,2.5,0,0,1-2-.83,3.71,3.71,0,0,1-.72-2.47V138.38a2.86,2.86,0,0,1,3.33-3.32h8.83a25.37,25.37,0,0,1,3.13.16,7.59,7.59,0,0,1,2.34.63,6.62,6.62,0,0,1,2.23,1.51,6.52,6.52,0,0,1,1.47,2.29,7.53,7.53,0,0,1,.51,2.77,6.71,6.71,0,0,1-1.69,4.78,9.77,9.77,0,0,1-5.13,2.54,9.92,9.92,0,0,1,2.76,2.26,23.3,23.3,0,0,1,2.35,3.18,25,25,0,0,1,1.61,3,6.09,6.09,0,0,1,.57,1.87,1.91,1.91,0,0,1-.33,1.05,2.39,2.39,0,0,1-.93.82,2.92,2.92,0,0,1-1.35.3,2.71,2.71,0,0,1-1.54-.42,4.27,4.27,0,0,1-1.07-1.09c-.3-.44-.7-1.08-1.21-1.93l-2.18-3.62a21,21,0,0,0-2.09-3,5.13,5.13,0,0,0-1.88-1.42A6.32,6.32,0,0,0,1818.86,150.37Zm3.1-11.24h-5v7.36h4.87a13.92,13.92,0,0,0,3.29-.34,3.91,3.91,0,0,0,2-1.15,3.3,3.3,0,0,0,.7-2.24,3.52,3.52,0,0,0-.56-2,3.44,3.44,0,0,0-1.58-1.27A11.54,11.54,0,0,0,1822,139.13Z"/><path d="M1856.16,139.24h-12.23v6.57h11.26a2.7,2.7,0,0,1,1.86.56,1.88,1.88,0,0,1,.61,1.47,1.94,1.94,0,0,1-.6,1.48,2.6,2.6,0,0,1-1.87.58h-11.26v7.61h12.65a2.79,2.79,0,0,1,1.93.59,2.07,2.07,0,0,1,.65,1.58,2,2,0,0,1-.65,1.55,2.79,2.79,0,0,1-1.93.59h-14.76a3.46,3.46,0,0,1-2.55-.79,3.51,3.51,0,0,1-.77-2.53V138.38a4.49,4.49,0,0,1,.34-1.9,2.16,2.16,0,0,1,1.09-1.08,4.53,4.53,0,0,1,1.89-.34h14.34a2.75,2.75,0,0,1,1.93.58,1.93,1.93,0,0,1,.63,1.5,2,2,0,0,1-.63,1.53A2.8,2.8,0,0,1,1856.16,139.24Z"/><path d="M1866.84,135.06h7.08a19.21,19.21,0,0,1,4.74.51,8.68,8.68,0,0,1,3.58,1.92q4.18,3.57,4.19,10.88a21.42,21.42,0,0,1-.42,4.4,13.1,13.1,0,0,1-1.3,3.58,11.29,11.29,0,0,1-2.25,2.86,9.53,9.53,0,0,1-2.36,1.55,10.7,10.7,0,0,1-2.75.82,20.77,20.77,0,0,1-3.32.24H1867a4.4,4.4,0,0,1-2.23-.45,2.08,2.08,0,0,1-1-1.26,8.06,8.06,0,0,1-.23-2.11V138.38a2.86,2.86,0,0,1,3.33-3.32Zm2.1,4.29v18.16h4.12c.9,0,1.61,0,2.12-.07a6.5,6.5,0,0,0,1.59-.37,4.12,4.12,0,0,0,1.43-.82q2.71-2.3,2.72-7.92a11.73,11.73,0,0,0-1.19-5.93,5.33,5.33,0,0,0-3-2.51,14.53,14.53,0,0,0-4.24-.54Z"/></svg>